<?xml version="1.0" encoding="UTF-8" standalone="no"?>
<!-- Created with Inkscape (http://www.inkscape.org/) -->

<svg
   xmlns:osb="http://www.openswatchbook.org/uri/2009/osb"
   xmlns:dc="http://purl.org/dc/elements/1.1/"
   xmlns:cc="http://creativecommons.org/ns#"
   xmlns:rdf="http://www.w3.org/1999/02/22-rdf-syntax-ns#"
   xmlns:svg="http://www.w3.org/2000/svg"
   xmlns="http://www.w3.org/2000/svg"
   xmlns:xlink="http://www.w3.org/1999/xlink"
   xmlns:sodipodi="http://sodipodi.sourceforge.net/DTD/sodipodi-0.dtd"
   xmlns:inkscape="http://www.inkscape.org/namespaces/inkscape"
   width="127.35706"
   height="147.37749"
   viewBox="0 0 127.35706 147.37749"
   version="1.1"
   id="SVGRoot"
   inkscape:version="0.92.2 (30a58d1, 2017-08-07)"
   sodipodi:docname="portfolioportrait.svg"
   inkscape:export-filename="/home/claudio/Pictures/toonportraitbeaniewithrealernose.png"
   inkscape:export-xdpi="2457.6001"
   inkscape:export-ydpi="2457.6001">
  <sodipodi:namedview
     id="base"
     pagecolor="#ffffff"
     bordercolor="#666666"
     borderopacity="1.0"
     inkscape:pageopacity="0.0"
     inkscape:pageshadow="2"
     inkscape:zoom="1.9370861"
     inkscape:cx="193.03027"
     inkscape:cy="36.465926"
     inkscape:document-units="px"
     inkscape:current-layer="layer1"
     showgrid="false"
     inkscape:window-width="1301"
     inkscape:window-height="744"
     inkscape:window-x="65"
     inkscape:window-y="24"
     inkscape:window-maximized="1"
     inkscape:grid-bbox="true"
     inkscape:snap-others="true"
     inkscape:object-nodes="false"
     showguides="true"
     inkscape:snap-text-baseline="false"
     inkscape:snap-page="true" />
  <defs
     id="defs4501">
    <linearGradient
       inkscape:collect="always"
       id="linearGradient5829">
      <stop
         style="stop-color:#000000;stop-opacity:1;"
         offset="0"
         id="stop5825" />
      <stop
         style="stop-color:#000000;stop-opacity:0;"
         offset="1"
         id="stop5827" />
    </linearGradient>
    <linearGradient
       inkscape:collect="always"
       id="linearGradient5743">
      <stop
         style="stop-color:#000000;stop-opacity:1;"
         offset="0"
         id="stop5739" />
      <stop
         style="stop-color:#000000;stop-opacity:0;"
         offset="1"
         id="stop5741" />
    </linearGradient>
    <linearGradient
       inkscape:collect="always"
       id="linearGradient5735">
      <stop
         style="stop-color:#000000;stop-opacity:1;"
         offset="0"
         id="stop5731" />
      <stop
         style="stop-color:#000000;stop-opacity:0;"
         offset="1"
         id="stop5733" />
    </linearGradient>
    <linearGradient
       inkscape:collect="always"
       id="linearGradient5565">
      <stop
         style="stop-color:#000000;stop-opacity:1;"
         offset="0"
         id="stop5561" />
      <stop
         style="stop-color:#000000;stop-opacity:0;"
         offset="1"
         id="stop5563" />
    </linearGradient>
    <linearGradient
       inkscape:collect="always"
       id="linearGradient5533">
      <stop
         style="stop-color:#000000;stop-opacity:1;"
         offset="0"
         id="stop5529" />
      <stop
         style="stop-color:#000000;stop-opacity:0;"
         offset="1"
         id="stop5531" />
    </linearGradient>
    <linearGradient
       inkscape:collect="always"
       id="linearGradient5505">
      <stop
         style="stop-color:#000000;stop-opacity:1;"
         offset="0"
         id="stop5501" />
      <stop
         style="stop-color:#000000;stop-opacity:0;"
         offset="1"
         id="stop5503" />
    </linearGradient>
    <linearGradient
       inkscape:collect="always"
       id="linearGradient5278">
      <stop
         style="stop-color:#000000;stop-opacity:1;"
         offset="0"
         id="stop5274" />
      <stop
         style="stop-color:#000000;stop-opacity:0;"
         offset="1"
         id="stop5276" />
    </linearGradient>
    <linearGradient
       inkscape:collect="always"
       id="linearGradient5242">
      <stop
         style="stop-color:#000000;stop-opacity:1;"
         offset="0"
         id="stop5238" />
      <stop
         style="stop-color:#000000;stop-opacity:0;"
         offset="1"
         id="stop5240" />
    </linearGradient>
    <linearGradient
       inkscape:collect="always"
       id="linearGradient5226">
      <stop
         style="stop-color:#000000;stop-opacity:1;"
         offset="0"
         id="stop5222" />
      <stop
         style="stop-color:#000000;stop-opacity:0;"
         offset="1"
         id="stop5224" />
    </linearGradient>
    <linearGradient
       inkscape:collect="always"
       id="linearGradient5218-3">
      <stop
         style="stop-color:#000000;stop-opacity:1;"
         offset="0"
         id="stop5214" />
      <stop
         style="stop-color:#000000;stop-opacity:0;"
         offset="1"
         id="stop5216" />
    </linearGradient>
    <linearGradient
       inkscape:collect="always"
       id="linearGradient5202">
      <stop
         style="stop-color:#000000;stop-opacity:1;"
         offset="0"
         id="stop5198" />
      <stop
         style="stop-color:#000000;stop-opacity:0;"
         offset="1"
         id="stop5200" />
    </linearGradient>
    <linearGradient
       inkscape:collect="always"
       id="linearGradient5194">
      <stop
         style="stop-color:#000000;stop-opacity:1;"
         offset="0"
         id="stop5190" />
      <stop
         style="stop-color:#000000;stop-opacity:0;"
         offset="1"
         id="stop5192" />
    </linearGradient>
    <linearGradient
       id="linearGradient5154"
       osb:paint="solid">
      <stop
         style="stop-color:#ece8e8;stop-opacity:1;"
         offset="0"
         id="stop5152" />
    </linearGradient>
    <linearGradient
       inkscape:collect="always"
       xlink:href="#linearGradient5226"
       id="linearGradient5228"
       x1="72.288933"
       y1="84.496422"
       x2="105.9281"
       y2="84.496422"
       gradientUnits="userSpaceOnUse"
       gradientTransform="matrix(0.95998786,0,0,0.8686401,8.3028596,31.824316)" />
    <linearGradient
       inkscape:collect="always"
       xlink:href="#linearGradient5242"
       id="linearGradient5244"
       x1="75.090317"
       y1="60.57111"
       x2="139.29236"
       y2="30.900969"
       gradientUnits="userSpaceOnUse"
       gradientTransform="matrix(0.99189576,0,0,1.4223544,-3.7861463,-4.4801419)" />
    <linearGradient
       inkscape:collect="always"
       xlink:href="#linearGradient5278"
       id="linearGradient5280"
       x1="103.84778"
       y1="98.214272"
       x2="118.69702"
       y2="98.214272"
       gradientUnits="userSpaceOnUse"
       gradientTransform="matrix(1.2176095,0,0,0.98159963,-22.349114,16.807178)" />
    <radialGradient
       inkscape:collect="always"
       xlink:href="#linearGradient5218-3"
       id="radialGradient5282"
       cx="137.08601"
       cy="81.928139"
       fx="137.08601"
       fy="81.928139"
       r="20.996813"
       gradientTransform="matrix(1,0,0,0.27242916,2.1767768,78.613727)"
       gradientUnits="userSpaceOnUse" />
    <linearGradient
       inkscape:collect="always"
       xlink:href="#linearGradient5505"
       id="linearGradient5507"
       x1="66.983894"
       y1="108.65324"
       x2="71.431892"
       y2="108.65324"
       gradientUnits="userSpaceOnUse"
       gradientTransform="matrix(0.33708013,0,0,1.0044835,51.610179,6.012534)" />
    <linearGradient
       inkscape:collect="always"
       xlink:href="#linearGradient5533"
       id="linearGradient5535"
       x1="101.29047"
       y1="156.02361"
       x2="115.19696"
       y2="156.02361"
       gradientUnits="userSpaceOnUse"
       gradientTransform="matrix(0.85659137,0,0,2.8756186,22.543039,-282.68162)" />
    <linearGradient
       inkscape:collect="always"
       xlink:href="#linearGradient5565"
       id="linearGradient5567"
       x1="74.578979"
       y1="133.95184"
       x2="193.5144"
       y2="133.95184"
       gradientUnits="userSpaceOnUse"
       gradientTransform="matrix(0.96622304,0,0,1.0001719,2.5276898,-0.02302248)" />
    <linearGradient
       inkscape:collect="always"
       xlink:href="#linearGradient5194"
       id="linearGradient5621"
       gradientUnits="userSpaceOnUse"
       x1="92.471413"
       y1="99.527931"
       x2="118.13961"
       y2="99.527931"
       gradientTransform="matrix(1,0,0,0.99037518,-7.4933661,14.518002)" />
    <linearGradient
       inkscape:collect="always"
       xlink:href="#linearGradient5735"
       id="linearGradient5737"
       x1="77.312088"
       y1="102.35786"
       x2="101.51455"
       y2="102.35786"
       gradientUnits="userSpaceOnUse"
       gradientTransform="matrix(0.90660288,0,0,1.0022638,13.225977,15.393281)" />
    <linearGradient
       inkscape:collect="always"
       xlink:href="#linearGradient5743"
       id="linearGradient5745"
       x1="127.32637"
       y1="102.97607"
       x2="145.88914"
       y2="102.97607"
       gradientUnits="userSpaceOnUse"
       gradientTransform="translate(2,14)" />
    <linearGradient
       inkscape:collect="always"
       xlink:href="#linearGradient5202"
       id="linearGradient5773"
       gradientUnits="userSpaceOnUse"
       x1="135.91438"
       y1="98.768806"
       x2="171.32031"
       y2="98.768806"
       gradientTransform="matrix(1,0,0,0.98426508,-13.000586,14.501308)" />
    <linearGradient
       inkscape:collect="always"
       xlink:href="#linearGradient5829"
       id="linearGradient5831"
       x1="114.71208"
       y1="157.50134"
       x2="119.11569"
       y2="157.50134"
       gradientUnits="userSpaceOnUse"
       gradientTransform="translate(-2)" />
    <linearGradient
       inkscape:collect="always"
       xlink:href="#linearGradient5194"
       id="linearGradient1001"
       gradientUnits="userSpaceOnUse"
       gradientTransform="matrix(1,0,0,0.99037518,-7.4933661,14.518002)"
       x1="92.471413"
       y1="99.527931"
       x2="118.13961"
       y2="99.527931" />
  </defs>
  <metadata
     id="metadata4504">
    <rdf:RDF>
      <cc:Work
         rdf:about="">
        <dc:format>image/svg+xml</dc:format>
        <dc:type
           rdf:resource="http://purl.org/dc/dcmitype/StillImage" />
        <dc:title />
      </cc:Work>
    </rdf:RDF>
  </metadata>
  <g
     id="layer1"
     inkscape:groupmode="layer"
     inkscape:label="Layer 1"
     transform="translate(0.1922349,-5.4291345)">
    <g
       id="g993"
       transform="translate(-66.594871,-30.974359)">
      <path
         sodipodi:nodetypes="cccczzzzccc"
         inkscape:connector-curvature="0"
         id="path4632"
         d="m 175.77949,96.22393 -1.80684,40.78291 -40.52479,31.4906 -42.58974,1.29059 c 0,0 -12.793472,-28.89657 -14.97094,-35.62051 -2.177468,-6.72394 -0.586103,-1.75493 -0.853384,-3.6697 -0.26728,-1.91478 -0.40724,-4.46123 -0.382836,-7.82304 0.0244,-3.36181 0.653584,-8.06922 0.652904,-12.3142 -6.8e-4,-4.24497 -0.707282,-13.104171 -0.707282,-13.104171 L 127.25299,72.735041 Z"
         style="opacity:1;fill:#ffffff;stroke:none;stroke-width:1px;stroke-linecap:butt;stroke-linejoin:miter;stroke-opacity:1" />
      <rect
         y="108.92181"
         x="156.62415"
         height="1.2374369"
         width="17.324116"
         id="rect4735"
         style="opacity:0.43800001;fill:#5f8dd3;fill-opacity:1;fill-rule:nonzero;stroke:none;stroke-width:0.95244092;stroke-linecap:round;stroke-linejoin:round;stroke-miterlimit:4;stroke-dasharray:none;stroke-dashoffset:0;stroke-opacity:0.44982701;paint-order:normal" />
      <path
         sodipodi:nodetypes="cccccccccccccccccccccccccccssssssccccccccccccccccccccc"
         inkscape:connector-curvature="0"
         d="m 182.41602,83.310547 c -1.90713,0.118799 -1.62864,5.072004 -2.44922,7.40625 -2.79873,7.961389 -3.33882,17.087893 -7.63282,24.193363 -4.49562,7.43912 -13.01197,11.05418 -18.125,17.88281 -2.91649,3.89509 -2.61058,10.91101 -6.96289,12.9082 -2.07119,0.95044 -4.37662,1.02028 -6.74609,0.61328 -2e-5,0.21025 -7e-5,0.4205 0,0.63086 2e-5,0.0282 8e-5,0.20371 0,0.20703 v 0.002 c 0.0181,0.002 0.004,0.036 0,0.0605 0.0248,0.007 0.0314,0.0135 0,0.0195 0.001,0.33417 0.004,0.66784 -0.004,1.00195 0.001,0.3898 0.0375,0.78207 -0.0117,1.16992 -0.0435,0.347 0.002,0.0118 -0.14844,-0.0977 -0.0596,-0.0435 -0.15445,-0.12705 -0.23242,-0.19531 -0.0445,0.33236 -0.0724,0.6615 -0.10157,0.99219 2.3e-4,0.0304 -0.003,0.0952 -0.002,0.16015 -0.004,0.047 -0.023,0.0885 -0.0293,0.13477 -0.0135,0.13424 -0.0228,0.27095 -0.041,0.4043 0.21557,0.0845 0.30924,0.092 -0.041,0.30078 -0.0187,0.0961 1.6935,3.4399 1.668,3.53515 -11.90176,-12.19545 -37.59255,1.35344 -52.775607,-6.38322 -0.689691,-0.46334 -0.915653,-0.73528 -0.679688,-1.20117 -0.389676,-0.42042 -0.348394,-0.47511 -0.414062,-1.15234 2.9e-4,-0.004 0.0053,-0.0292 0.0098,-0.0508 -0.288705,-0.0956 -0.538988,-0.26226 -0.740235,-0.51954 l -11.375,-12.9121 c 0,0 0.336774,7.25795 0.404297,10.89062 0.117295,6.31019 -2.342768,13.07298 0,18.93359 2.755203,6.89235 8.742907,12.75328 15.351563,16.13282 9.587152,4.90268 21.313782,5.61349 32.007812,4.35351 12.84492,-1.51341 25.60842,-6.5696 36.17969,-14.02148 5.73566,-4.04317 10.30409,-9.82621 13.76367,-15.93164 4.00445,-7.06701 6.17319,-15.09323 7.63086,-23.14258 2.74258,-15.14509 7.85188,29.10699 1.9082,-46.285158 -0.14751,-0.03726 -0.28496,-0.04894 -0.4121,-0.04102 z M 88.277344,146.18167 c -0.0458,-0.0289 -0.05333,0.021 -0.234375,0.39648 -0.0042,-0.009 -0.01438,-0.0375 -0.01367,-0.0273 0.01918,0.27689 0.06756,0.27173 0.177734,0.33008 0.09351,-0.13908 0.259089,-0.3315 0.421875,-0.51367 -0.107744,-0.0836 0.04375,0.0331 -0.125,-0.0977 -0.138574,-0.0144 -0.194744,-0.0678 -0.226562,-0.0879 z m 1.351562,1.71094 c -0.02852,-0.0413 0.03884,0.0926 0.05859,0.13867 0.02221,0.01 0.0142,0.006 0.03516,0.0156 -0.02953,-0.0525 -0.0596,-0.10485 -0.09375,-0.1543 z m -0.388672,0.008 c -0.201617,0.0424 -0.402024,0.091 -0.583984,0.17773 -0.112215,0.0535 0.287088,0.18616 0.363281,0.0879 0.09055,-0.11673 0.139673,-0.16587 0.220703,-0.26563 z"
         style="fill:#000000;fill-opacity:1;fill-rule:nonzero;stroke:url(#linearGradient5567);stroke-width:1.00330663;stroke-linecap:butt;stroke-linejoin:round;stroke-miterlimit:4;stroke-dasharray:none;stroke-dashoffset:0;stroke-opacity:1;paint-order:normal"
         id="path5062" />
      <path
         sodipodi:nodetypes="czzsscscccc"
         inkscape:connector-curvature="0"
         id="path5097"
         d="m 181.26434,106.45232 c 0,0 3.88182,-6.21769 6.04944,-5.50849 2.1676,0.70919 4.16975,4.94167 4.91516,9.04969 0.74538,4.10799 0.221,8.8524 -0.75618,12.59085 -0.65759,2.51576 -2.31896,3.96934 -3.50453,5.6053 -0.5762,0.7951 -1.48196,1.89846 -1.66353,2.92261 -0.0934,1.41697 -0.13394,2.00549 -0.46944,2.43243 -0.41957,0.53393 -0.49536,0.77174 -1.46165,1.25134 -0.49171,0.0804 -0.95344,0.38097 -2.34342,-0.27152 -1.9136,-0.98833 -1.61476,-2.19331 -1.84696,-3.50847 z"
         style="fill:#ffffff;fill-opacity:1;stroke:#afc6e9;stroke-width:0.42521334;stroke-linecap:butt;stroke-linejoin:miter;stroke-miterlimit:4;stroke-dasharray:none;stroke-opacity:1" />
      <path
         sodipodi:nodetypes="zzzzczzzzz"
         inkscape:connector-curvature="0"
         id="path5158"
         d="m 118.8494,102.8247 c 0.4123,-2.00093 3.37525,-3.404249 7.07107,-4.596191 3.69582,-1.191942 10.04691,-2.787498 14.84924,-2.474874 4.80233,0.312624 10.76815,2.820955 13.78858,4.242641 3.02043,1.421684 4.5962,3.889084 4.5962,3.889084 0,0 -4.48226,-1.15639 -8.83884,-1.76776 -4.35658,-0.61138 -12.5289,-1.98202 -16.617,-1.06066 -4.0881,0.92135 -5.38429,2.69039 -7.42463,3.53553 -2.04034,0.84514 -3.85125,1.96259 -5.3033,1.41421 -1.45205,-0.54837 -2.53362,-1.18104 -2.12132,-3.18198 z"
         style="fill:#000000;stroke:url(#radialGradient5282);stroke-width:1px;stroke-linecap:butt;stroke-linejoin:miter;stroke-opacity:1" />
      <path
         sodipodi:nodetypes="zzzcczzzzz"
         inkscape:connector-curvature="0"
         id="path5160"
         d="m 109.44613,108.01151 c 0.54652,-1.92173 -2.54055,-4.42089 -5.4305,-5.8351 -2.88996,-1.41421 -7.592079,-1.62532 -11.200436,-1.22844 -3.608358,0.39687 -9.842802,3.37821 -9.842802,3.37821 l -3.733476,3.37822 c 0,0 10.204471,-2.20277 13.915685,-2.45689 3.711214,-0.25411 6.007636,0.0667 7.466949,0.92134 1.45933,0.85458 1.0974,0.52616 1.69704,1.22844 0.59964,0.70228 1.34746,1.92989 2.71526,2.14977 1.3678,0.21989 3.86576,0.38618 4.41228,-1.53555 z"
         style="fill:#000000;fill-opacity:1;stroke:url(#linearGradient5228);stroke-width:0.91317248px;stroke-linecap:butt;stroke-linejoin:miter;stroke-opacity:1" />
      <path
         sodipodi:nodetypes="czzc"
         inkscape:connector-curvature="0"
         id="path5705"
         d="m 185.145,115.28796 c 0,0 3.83836,-0.80448 4.46618,1.27353 0.62779,2.078 -1.69373,7.96441 -3.7156,9.48483 -2.02191,1.52044 -3.86102,-0.44194 -3.86102,-0.44194"
         style="opacity:0.56800022;fill:none;stroke:#87aade;stroke-width:0.59605104;stroke-linecap:butt;stroke-linejoin:miter;stroke-miterlimit:4;stroke-dasharray:none;stroke-opacity:1" />
      <path
         sodipodi:nodetypes="czscczc"
         inkscape:connector-curvature="0"
         id="path4824"
         d="m 186.6398,125.33004 c 0,0 0.37733,-2.28934 0.63599,-3.38138 0.25871,-1.09204 0.48922,-3.4941 0.48922,-3.4941 0.0465,-1.29362 -1.27197,-2.5924 -1.27197,-2.5924 l 3.03317,-0.56357 c 0,0 0.0309,3.25987 -0.39138,4.67758 -0.42226,1.41772 -2.49503,5.35387 -2.49503,5.35387 z"
         style="fill:#d5e5ff;stroke:none;stroke-width:1.18811917px;stroke-linecap:butt;stroke-linejoin:miter;stroke-opacity:1" />
      <path
         sodipodi:nodetypes="czzzaaacsssssszszcsszc"
         inkscape:connector-curvature="0"
         id="path5162"
         d="m 116.18572,90.74476 c 5.0503,-0.208759 15.19989,-0.125133 21.72408,1.118311 6.5242,1.243439 10.20447,1.867577 15.84475,4.804982 5.64028,2.937407 13.54483,5.917497 17.61431,10.069397 4.0695,4.15189 4.95237,9.65186 8.4911,8.02553 4.36443,-2.00581 -5.48105,-14.03034 -0.6915,-14.39325 4.34666,-0.32936 -1.46885,9.68082 1.34782,13.00772 2.25997,2.66936 6.55064,3.83291 10.11542,2.78832 3.08709,-0.90462 2.96008,-10.27203 1.79527,-16.781901 -0.42101,-2.35293 -3.10176,-3.402239 -3.7644,-5.859746 C 185.69677,82.524951 181.12621,65.760114 176.7954,60.016686 170.83275,52.109144 160.59214,42.5134 152.61962,39.90201 c -5.90227,-1.933282 -12.89378,-2.839027 -19.86648,-2.920558 -6.44136,-0.07532 -12.86666,0.552748 -18.40233,1.723905 -4.4964,0.951282 -11.43002,3.751223 -17.823721,8.22111 -6.393703,4.469888 -15.56871,16.031327 -14.237703,14.529574 1.331008,-1.501753 -6.974836,14.24536 -9.688178,22.572176 -2.713342,8.326818 -0.681007,20.649923 -0.681007,20.649923 0,0 13.285652,-4.53137 19.908173,-6.89178 5.103083,-1.818852 10.086686,-4.247771 15.277116,-5.602245 2.9884,-0.77984 4.02992,-1.230595 9.08021,-1.439355 z"
         style="fill:#000000;fill-opacity:1;stroke:url(#linearGradient5244);stroke-width:1.14374959px;stroke-linecap:butt;stroke-linejoin:miter;stroke-opacity:1" />
      <circle
         r="4.375"
         cy="113"
         cx="138.625"
         id="ellipse5443"
         style="fill:#000000;fill-opacity:1;fill-rule:nonzero;stroke:none;stroke-width:0.38347059;stroke-linecap:round;stroke-linejoin:round;stroke-miterlimit:4;stroke-dasharray:none;stroke-dashoffset:0;stroke-opacity:1;paint-order:normal" />
      <ellipse
         style="fill:#000000;fill-opacity:1;fill-rule:nonzero;stroke:none;stroke-width:0.38860136;stroke-linecap:round;stroke-linejoin:round;stroke-miterlimit:4;stroke-dasharray:none;stroke-dashoffset:0;stroke-opacity:1;paint-order:normal"
         id="ellipse5445"
         cx="94.875"
         cy="115.25"
         rx="4.625"
         ry="4.25" />
      <path
         sodipodi:nodetypes="czc"
         inkscape:connector-curvature="0"
         id="path5499"
         d="m 75.542868,107.96761 c 0,0 -1.002049,3.48577 -1.17978,6.0269 -0.177732,2.54112 0.33708,8.53811 0.33708,8.53811"
         style="opacity:0.28600003;fill:#87aade;stroke:url(#linearGradient5507);stroke-width:0.14295155;stroke-linecap:butt;stroke-linejoin:miter;stroke-miterlimit:4;stroke-dasharray:none;stroke-opacity:1" />
      <path
         sodipodi:nodetypes="ssssszczzs"
         inkscape:connector-curvature="0"
         id="path5525"
         d="m 99.26755,148.32787 c 1.4398,-0.0779 3.86849,-2.34918 6.31228,-3.17668 2.66271,-0.90164 5.59544,1.97585 8.85452,1.86848 3.08147,-0.10152 5.35496,-2.8246 8.32878,-2.24556 4.92864,0.95967 9.99546,3.26487 12.24902,4.34693 6.37133,3.05922 4.47981,5.17325 0.99289,8.72495 -3.48691,3.55169 -24.82263,8.72493 -24.82263,8.72493 0,0 -15.291107,-6.28479 -17.872291,-9.51812 -2.581185,-3.23331 -2.277892,-6.48358 0,-7.93176 2.277892,-1.44819 -0.992766,-0.41715 5.957431,-0.79317 z"
         style="fill:#ffffff;fill-opacity:1;stroke:none;stroke-width:1.77487969px;stroke-linecap:butt;stroke-linejoin:miter;stroke-opacity:1" />
      <path
         sodipodi:nodetypes="cccc"
         inkscape:connector-curvature="0"
         id="path5527"
         d="m 107.98706,161.10145 17.06399,-1.5 -9.99615,10.62685 z"
         style="fill:#000000;fill-opacity:1;stroke:url(#linearGradient5535);stroke-width:1.56946814px;stroke-linecap:butt;stroke-linejoin:miter;stroke-opacity:1" />
      <path
         inkscape:connector-curvature="0"
         id="path5537"
         d="m 97.757785,154.33657 c 31.300195,0 33.088795,-3.49122 33.088795,-3.49122"
         style="fill:none;stroke:#000000;stroke-width:1.58042181px;stroke-linecap:butt;stroke-linejoin:miter;stroke-opacity:1" />
      <path
         sodipodi:nodetypes="zzczzzz"
         inkscape:connector-curvature="0"
         id="path5617"
         d="m 138.2373,110.66614 c 0.11281,0.71745 -1.38857,1.98831 -1.59099,2.74004 -0.20242,0.75173 0,1.5026 0,1.5026 0,0 -1.18671,-1.1862 -1.32583,-1.94454 -0.13912,-0.75834 0.13208,-1.6718 0.53033,-2.20971 0.39825,-0.53791 1.01633,-0.93294 1.5026,-0.88389 0.48627,0.0491 0.77108,0.078 0.88389,0.7955 z"
         style="fill:#ffffff;fill-opacity:1;stroke:none;stroke-width:1px;stroke-linecap:butt;stroke-linejoin:miter;stroke-opacity:1" />
      <path
         style="fill:#ffffff;fill-opacity:1;stroke:none;stroke-width:1px;stroke-linecap:butt;stroke-linejoin:miter;stroke-opacity:1"
         d="m 94.31052,112.68759 c 0.11281,0.71745 -1.38857,1.98831 -1.59099,2.74004 -0.20242,0.75173 0,1.5026 0,1.5026 0,0 -1.18671,-1.1862 -1.32583,-1.94454 -0.13912,-0.75834 0.13208,-1.6718 0.53033,-2.20971 0.39825,-0.53791 1.01633,-0.93294 1.5026,-0.88389 0.48627,0.0491 0.77108,0.078 0.88389,0.7955 z"
         id="path5619"
         inkscape:connector-curvature="0"
         sodipodi:nodetypes="zzczzzz" />
      <path
         inkscape:connector-curvature="0"
         d="m 125.92645,114.04913 c -0.0104,0.31117 -0.007,0.62265 -0.002,0.9339 -0.0128,0.1722 0.0502,0.32914 0.10138,0.48939 0.0249,0.11047 0.0507,0.21822 0.12132,0.30876 0.001,-0.004 0.008,-0.0124 0.004,-0.0107 -0.61256,0.31626 -0.55512,0.4335 -0.47861,0.0297 0.0347,-0.15679 0.0898,-0.30802 0.12773,-0.4639 0.0284,-0.1216 0.0194,-0.2471 0.0347,-0.3702 0.0684,-0.30386 0.44102,-0.477 0.7353,-0.49729 0.22898,0.0244 0.41651,0.1818 0.57984,0.33255 0.19153,0.21788 0.37578,0.44202 0.56657,0.6606 0.0974,0.10443 0.19462,0.19946 0.2421,0.3356 0.0758,0.2031 0.12527,0.41607 0.21121,0.61517 0.021,0.0544 0.0585,0.0992 0.0883,0.14828 0.0105,0.0173 0.0302,0.0727 0.0309,0.0524 3.8e-4,-0.0114 -0.007,-0.0216 -0.011,-0.0324 -0.63341,0.42251 -0.50899,0.42239 -0.5074,0.0631 -0.002,-0.25606 -0.0706,-0.11576 0.55185,-0.30325 0.0218,-0.007 0.0194,0.0412 0.0298,0.0614 0.0985,0.19255 -0.0143,-0.0371 0.0859,0.16936 0.11377,0.20172 0.2827,0.35918 0.44611,0.51919 0.0676,0.0336 0.14048,0.18637 0.21364,0.20294 0.0361,0.006 0.0729,0.001 0.10919,-5.3e-4 0.14486,-0.13878 0.50821,-0.27866 -0.4525,0.24765 -0.009,0.005 0.0152,-0.0155 0.0216,-0.0242 0.0192,-0.0263 0.0196,-0.0339 0.0307,-0.0641 0.0146,-0.0455 0.0208,-0.0925 0.0219,-0.14005 0.001,-0.0501 1.7e-4,-0.10022 -1.6e-4,-0.15033 1.4e-4,-0.0629 3.9e-4,-0.12587 -2.9e-4,-0.1888 -5.4e-4,-0.0522 8e-5,-0.10444 3e-5,-0.15665 -0.0118,-0.0449 -0.0527,-0.0432 -0.0913,-0.0483 -0.0518,-0.0457 -0.0979,-0.09 -0.12902,-0.15286 -0.0179,-0.0203 -0.0941,-0.14596 -0.0835,-0.0618 0.78448,-0.48011 0.52126,-0.46922 0.49743,-0.23651 0,0 -0.55087,0.27583 -0.55087,0.27583 v 0 c 0.0115,-0.26673 0.10017,-0.17736 0.5344,-0.4261 0.06,0.0319 0.0979,0.0908 0.13598,0.14535 0.0203,0.0417 0.0568,0.0883 0.10111,0.10504 0.0656,0.0192 0.11034,0.0538 0.13354,0.12022 -6e-5,0.0522 5.5e-4,0.10439 5e-5,0.15657 -6e-4,0.0628 -2.7e-4,0.12559 4.1e-4,0.18837 2.5e-4,0.0505 6.4e-4,0.10093 0.001,0.15139 -7e-4,0.0529 -9.9e-4,0.1052 -0.0164,0.15646 -0.0697,0.27434 -0.37817,0.42443 -0.65195,0.46591 -0.045,-1.8e-4 -0.0881,-0.002 -0.12746,-0.0269 -0.081,-0.0624 -0.13373,-0.1572 -0.21255,-0.22274 -0.16674,-0.16611 -0.338,-0.33063 -0.45781,-0.53595 -0.007,-0.0147 -0.13006,-0.2394 -0.12865,-0.24056 0.60908,-0.5026 0.53148,-0.52117 0.53238,-0.26377 0.003,0.38209 0.0255,0.28858 -0.53011,0.5869 -0.0649,-0.0683 -0.0978,-0.1633 -0.14368,-0.24445 -0.0829,-0.20101 -0.13159,-0.41499 -0.21661,-0.61554 -0.0483,-0.12551 -0.13405,-0.22129 -0.22273,-0.32183 -0.18515,-0.22075 -0.37031,-0.44152 -0.56634,-0.65275 -0.15166,-0.14263 -0.33379,-0.29312 -0.55366,-0.28468 -0.24957,0.0571 -0.0581,0.0202 0.41567,-0.26846 0.012,-0.007 -0.0275,0.007 -0.0395,0.0145 -0.0425,0.0257 -0.0662,0.0715 -0.0761,0.11815 -0.0261,0.12282 -0.006,0.2498 -0.0308,0.37339 -0.0382,0.15624 -0.0973,0.30615 -0.13364,0.46301 -0.0335,0.18389 -0.0623,1.05743 -0.60052,0.55935 -0.068,-0.10005 -0.10165,-0.21127 -0.1244,-0.32951 -0.0525,-0.16619 -0.1234,-0.32876 -0.10678,-0.50759 0.005,-0.31046 0.008,-0.62115 -0.002,-0.93153 0,0 0.54231,-0.27632 0.54231,-0.27632 z"
         id="path5669"
         style="opacity:1;fill:#1a1a1a;fill-opacity:1;fill-rule:nonzero;stroke:#000000;stroke-width:0.24566929;stroke-linecap:round;stroke-linejoin:round;stroke-miterlimit:4;stroke-dasharray:none;stroke-dashoffset:0;stroke-opacity:1;paint-order:normal" />
      <path
         inkscape:connector-curvature="0"
         d="m 126.98839,115.61833 c -0.003,0.15054 -0.002,0.3012 -4e-5,0.45177 5.4e-4,0.0798 2.5e-4,0.1595 0.002,0.23924 -0.003,0.11686 -0.003,0.23379 -0.002,0.35068 0.001,0.0833 -2.6e-4,0.1666 4e-5,0.2499 0,0 -0.54474,0.27756 -0.54474,0.27756 v 0 c 3e-4,-0.0833 -0.001,-0.16663 4e-5,-0.24993 9.4e-4,-0.11631 0.002,-0.23265 -0.002,-0.34892 0.001,-0.0803 0.001,-0.16063 0.002,-0.24095 0.002,-0.15055 0.003,-0.3012 -4e-5,-0.45173 0,0 0.54487,-0.27762 0.54487,-0.27762 z"
         id="path5671"
         style="opacity:1;fill:#1a1a1a;fill-opacity:1;fill-rule:nonzero;stroke:#000000;stroke-width:0.24566929;stroke-linecap:round;stroke-linejoin:round;stroke-miterlimit:4;stroke-dasharray:none;stroke-dashoffset:0;stroke-opacity:1;paint-order:normal" />
      <path
         inkscape:connector-curvature="0"
         d="m 126.69856,115.3315 c -0.0294,-0.0269 -0.0563,-0.054 -0.0776,-0.0812 -0.002,-0.0158 -0.0484,-0.0295 -0.0805,-0.0438 -0.0186,-0.01 -0.0178,-0.0178 -0.0637,-0.0241 -0.0312,-0.004 -0.0723,-0.002 -0.10919,-0.002 -0.26875,-4.2e-4 -0.49238,0.0432 0.43765,-0.0558 -0.0657,0.007 -0.0463,0.0139 -0.0243,0.0247 0.0113,0.011 0.054,0.009 0.088,0.0167 0.0601,0.0129 0.0959,0.0284 0.12866,0.0442 0.0535,0.009 0.0793,0.0221 0.10168,0.0347 0.0212,0.009 0.0522,0.0176 0.0842,0.0257 0,0 -0.59419,0.0656 -0.59419,0.0656 v 0 c -0.0339,-0.009 -0.0669,-0.0191 -0.0937,-0.0293 -0.0199,-0.0131 -0.0507,-0.024 -0.1,-0.0341 -0.026,-0.0144 -0.0559,-0.0285 -0.11483,-0.0393 -0.0488,-0.005 -0.0887,-0.0105 -0.10145,-0.0214 -0.0295,-0.0145 -0.062,-0.0257 -0.0157,-0.0405 0.42731,-0.0461 0.43982,-0.0696 0.76242,-0.0665 0.051,6.3e-4 0.0985,0.002 0.13623,0.009 0.0478,0.009 0.0667,0.0175 0.0792,0.0295 0.0318,0.0155 0.083,0.0301 0.0864,0.0469 0.0157,0.0269 0.0391,0.0536 0.0743,0.0798 0,0 -0.6036,0.0611 -0.6036,0.0611 z"
         id="path5673"
         style="opacity:1;fill:#1a1a1a;fill-opacity:1;fill-rule:nonzero;stroke:#000000;stroke-width:0.11903962;stroke-linecap:round;stroke-linejoin:round;stroke-miterlimit:4;stroke-dasharray:none;stroke-dashoffset:0;stroke-opacity:1;paint-order:normal" />
      <path
         inkscape:connector-curvature="0"
         d="m 129.93112,116.66252 c 0.20027,0.002 0.39796,0.0349 0.59641,0.0548 0.0981,0.003 0.18959,0.0145 0.2368,0.0899 0.0154,0.14976 0.0247,0.29921 0.0521,0.44867 0.0113,0.0101 0.0419,0.31685 0.0527,0.18718 -0.15781,0.0709 -0.31335,0.14509 -0.47343,0.21261 -0.0296,0.0125 0.0545,-0.0313 0.0815,-0.0473 0.0798,-0.0472 0.11926,-0.0749 0.20675,-0.11556 0.20965,-0.0974 0.42167,-0.19139 0.63244,-0.28718 0.0354,-0.0161 0.0707,-0.0323 0.10609,-0.0485 0.16266,-0.0839 0.32297,-0.12067 0.513,-0.13163 0.2573,0.0277 0.45069,0.17642 0.61887,0.32426 0.13226,0.0998 0.22977,0.22359 0.34643,0.33413 0.12014,0.15092 0.32269,0.21744 0.48876,0.32843 0.24812,0.17528 0.46375,0.37653 0.6972,0.56364 0.0605,0.0355 0.10344,0.0925 0.16614,0.12619 0.006,0.003 0.016,0.008 0.0219,0.004 0.009,-0.006 0.0212,-0.0296 0.0112,-0.0255 -0.17037,0.0695 -0.33345,0.14991 -0.50018,0.22487 0.0598,-0.0628 0.0665,-0.14056 0.0727,-0.21661 0.004,-0.0662 0.004,-0.13256 0.003,-0.19884 3.9e-4,-0.0721 6.4e-4,-0.14419 -5.6e-4,-0.21628 -3e-5,-0.058 2.6e-4,-0.11605 -9.3e-4,-0.17408 -0.002,-0.21293 0.38863,-0.30256 0.63693,-0.30144 0.18026,0.002 0.36055,0.003 0.54083,0.002 0.18221,-8e-4 0.3644,0.002 0.54661,0.002 0.13604,-6.7e-4 0.27208,-0.002 0.40812,-0.002 0.0906,-0.004 0.15431,0.0732 0.21378,0.12062 0.0994,0.0808 0.18259,0.17516 0.28168,0.25569 0.11384,0.0571 0.23597,0.10248 0.36011,0.1433 0.0436,0.0175 0.0846,0.0263 0.13113,0.0123 0.007,-0.002 0.0137,-0.006 0.0206,-0.009 0.004,-0.003 0.018,-0.0124 0.0128,-0.01 -0.17166,0.0794 -0.34185,0.1607 -0.51278,0.24105 0.0225,-0.0267 0.0187,-0.0612 0.0179,-0.0921 -9.3e-4,-0.0561 -8.4e-4,-0.11223 -0.001,-0.16834 -0.0375,-0.22286 0.3061,-0.33475 0.58362,-0.3509 0.0602,-8e-4 0.12033,-0.002 0.18052,-0.002 0.0524,-0.0401 0.19261,-0.0855 0.26825,-0.1061 0.26538,-0.0517 0.49008,-0.18122 -0.34195,0.19437 0.0302,-0.0357 0.0113,-0.0805 0.034,-0.11768 0.19458,-0.2154 0.43081,-0.25409 0.69309,-0.25506 0.0918,8e-4 0.18373,0.002 0.2756,0.002 0.13836,0.0201 0.24943,0.0923 0.35183,0.1654 0.0891,0.0567 0.13769,0.13393 0.16957,0.21935 0.0287,0.0583 0.0481,0.14057 0.0787,0.18682 -0.68325,0.30394 -0.51949,0.33007 -0.52222,0.0834 -0.005,-0.2703 0.48907,-0.33874 0.77732,-0.35862 0.18597,-0.01 0.37244,-0.0117 0.55875,-0.0121 0.39962,0.006 0.43602,-0.0867 -0.22865,0.21441 0.0602,-0.023 0.0453,-0.0935 0.0457,-0.13889 -0.001,-0.0605 -0.002,-0.12095 -0.003,-0.18142 0.0127,-0.40981 0.46893,-0.37533 0.72204,-0.24752 0.13371,0.0569 0.21217,0.16092 0.31815,0.24139 0.0862,0.0574 0.1969,0.0798 0.30403,0.0982 0.19098,0.0284 0.64283,-0.23077 -0.42774,0.21908 -0.0104,0.004 0.0182,-0.0124 0.0245,-0.0204 0.0121,-0.0155 0.0182,-0.0408 0.0235,-0.0582 0.0243,-0.25516 0.43366,-0.40485 0.73575,-0.36835 0.32234,0.073 0.62543,0.19438 0.93449,0.29764 0.0756,0.0172 0.0923,0.0295 0.16469,0.0204 0.0157,-0.002 0.0589,-0.0187 0.0451,-0.0123 -0.88889,0.40721 -0.52333,0.32657 -0.45759,0.1591 0.0159,-0.0775 0.0109,-0.15639 0.007,-0.23451 -0.001,-0.0959 -0.005,-0.19172 -0.002,-0.28759 0.0201,-0.23137 -0.0137,-0.46495 0.008,-0.69588 0.0505,-0.19036 0.009,-0.0772 0.57539,-0.23066 0.002,-6.3e-4 0.0579,0.15081 0.0666,0.17164 0.0261,0.0859 0.0758,0.16465 0.11459,0.24682 0.0308,0.0528 0.0706,0.0804 0.13893,0.0945 0.0527,0.006 0.10679,0.002 0.16004,0.002 0.0589,-6.6e-4 0.11762,-0.002 0.17644,-0.002 0.25551,0.006 0.56766,-0.19382 -0.29407,0.19383 0.0823,-0.0559 0.10859,-0.14151 0.17833,-0.20763 0.0736,-0.0553 0.15491,-0.10348 0.23504,-0.15239 0.19156,-0.11946 0.53505,-0.42026 0.66192,-0.18478 0.007,0.10175 0.0533,0.16811 0.1226,0.25142 0.0762,0.0707 0.16167,0.13104 0.22428,0.21048 -0.70003,0.27972 -0.5274,0.32205 -0.50873,0.0898 0.004,-0.0501 0.002,-0.0986 0.01,-0.14843 0.17396,-0.35204 0.52489,-0.37071 0.79742,-0.22182 0.0855,0.0359 0.12217,0.11389 0.21233,0.14092 0.11077,0.006 0.28454,0.0671 0.3765,0.004 -0.71083,0.32488 -0.44854,0.30332 -0.4237,0.0246 0.004,-0.0907 0.002,-0.18143 2.7e-4,-0.27213 -0.002,-0.0636 -0.002,-0.12719 -0.003,-0.19078 -0.004,-0.18709 -0.0996,-0.0331 0.5486,-0.23412 0.0144,-0.005 -0.001,0.0249 -0.001,0.0373 -0.001,0.037 -0.001,0.0732 -0.002,0.11029 0.005,0.14952 -0.017,0.30122 0.009,0.44977 0.0131,0.0579 0.0368,0.10194 0.11516,0.10339 0.2261,0.006 0.27885,-0.0765 -0.4604,0.22252 -0.0109,0.004 0.0162,-0.0148 0.0219,-0.0234 0.0125,-0.019 0.0392,-0.0803 0.0474,-0.0982 0.0486,-0.12881 0.0921,-0.25923 0.16797,-0.37962 0.0672,-0.10134 0.16481,-0.18198 0.26236,-0.2637 0.0622,-0.0561 0.0862,-0.13068 0.12245,-0.19855 0.14088,-0.22773 0.36101,-0.24099 0.68642,-0.38 0.0833,0.0681 0.0801,0.17336 0.11022,0.26188 0.0353,0.0632 0.0155,0.15802 0.0809,0.20829 0.16964,-0.16184 -0.16058,0.0588 -0.46387,0.19173 -0.0111,0.005 0.0188,-0.014 0.0257,-0.0225 0.0187,-0.0232 0.0242,-0.045 0.0338,-0.071 0.022,-0.0764 0.0243,-0.15512 0.0251,-0.23315 9.9e-4,-0.0672 -0.009,-0.13478 0.018,-0.19937 0.1072,-0.18498 0.39669,-0.30664 0.64847,-0.30142 0.24798,0.006 0.49614,0.005 0.7442,0.004 -0.0257,0.0721 0.31737,-0.0711 0.24025,-0.038 -0.16003,0.0686 -0.31319,0.14834 -0.47895,0.20752 -0.0206,0.007 0.0234,-0.0311 0.032,-0.048 0.009,-0.0167 0.0128,-0.0345 0.0192,-0.0518 0.023,-0.0883 0.0237,-0.1791 0.019,-0.26889 0.61963,-0.80131 0.5503,-0.10072 0.53065,0.0552 -0.0516,0.27792 -0.0554,0.21518 -0.59621,0.36884 -0.0106,0.003 -0.0133,-0.0419 -0.0201,-0.11095 -0.006,-0.10599 -0.009,-0.21218 -0.009,-0.31829 0.002,-0.0712 5.8e-4,-0.14255 0.001,-0.21382 -5.1e-4,-0.0406 -8.1e-4,-0.0812 -8e-4,-0.12174 -4e-5,-0.0423 4.7e-4,-0.0845 4.1e-4,-0.12679 -0.0521,-0.18846 0.55027,-0.43633 0.54682,-0.19282 -0.001,0.13329 -0.002,0.26658 -0.003,0.39987 -0.002,0.16356 -0.0673,0.31167 -0.15791,0.45554 -0.17582,0.24856 -0.32686,0.24754 -0.71819,0.41618 -0.078,-0.0486 -0.0929,-0.1205 -0.10422,-0.19467 -0.008,-0.0568 -0.007,-0.11404 -0.007,-0.17109 0.001,-0.0433 7.3e-4,-0.0866 -2.5e-4,-0.12994 0.003,0.008 -0.002,-0.0156 -3.7e-4,-0.0119 0.0198,0.041 -0.0289,0.0266 -0.0669,0.0269 -0.008,1.4e-4 -0.0175,-0.003 -0.024,4e-4 -0.007,0.004 -0.0171,0.0221 -0.01,0.0188 0.17142,-0.075 0.33398,-0.1627 0.50646,-0.23608 0.0107,-0.005 -0.0104,0.0176 -0.0145,0.0268 -0.0107,0.0239 -0.0314,0.083 -0.039,0.1041 -0.0589,0.1604 -0.15413,0.30954 -0.26202,0.45178 -0.18811,0.20802 -0.48846,0.34946 -0.79486,0.41971 -0.11194,0.0157 -0.13853,-0.0238 -0.15991,-0.11003 -0.0258,-0.093 0.001,-0.19275 -0.0265,-0.28481 -0.02,-0.0358 -0.0789,-0.0374 -0.1227,-0.0365 -0.17625,0.008 -0.68148,0.22499 0.42306,-0.20357 0.0373,-0.0144 -0.0413,0.0576 -0.0601,0.0872 -0.0609,0.0868 -0.0937,0.18279 -0.13924,0.27478 -0.039,0.0738 -0.0599,0.1517 -0.0708,0.23107 -1.8e-4,0.0666 -0.0194,0.12735 -0.0608,0.1848 -0.0517,0.0342 -0.0891,0.0558 -0.11647,0.10663 -0.0496,0.0983 -0.13816,0.17412 -0.2427,0.23637 -0.31163,0.17417 -0.49119,0.28115 -0.81728,0.29679 -0.0925,0.009 -0.14214,-0.0221 -0.17893,-0.0881 -0.019,-0.0363 -0.0244,-0.0731 -0.0243,-0.11197 -8e-4,-0.11543 0.0242,-0.23368 -0.027,-0.34378 -0.13956,-0.10348 -0.39467,-0.003 -0.55348,0.0327 -0.10363,0.0382 -0.22584,0.0357 -0.33094,0.0684 -0.0148,0.005 -0.0545,0.0267 -0.0405,0.0204 0.16546,-0.075 0.33023,-0.15106 0.49534,-0.22659 -0.075,0.0466 -0.0599,0.14395 -0.0616,0.21274 -3.5e-4,0.0953 0.002,0.19058 0.004,0.28585 1.7e-4,0.053 0.001,0.10605 0.003,0.15905 -0.0263,0.19462 -0.42082,0.25369 -0.57851,0.32902 -0.31518,0.0845 0.71028,-0.35529 0.38435,-0.17662 -0.26154,0.199 -0.44759,0.25777 -0.73487,0.26403 -0.0844,0.005 -0.15578,0.003 -0.23121,-0.0285 -0.0756,-0.0369 -0.12053,-0.0962 -0.18127,-0.14506 -0.0517,-0.0517 -0.0748,-0.11373 -0.0865,-0.17826 -0.009,-0.0582 -0.005,-0.11691 -0.008,-0.17533 0.62365,-0.28063 0.54904,-0.3317 0.54791,-0.041 0.008,0.27038 -0.34115,0.29207 -0.62932,0.42073 -0.0724,0.008 -0.14609,0.008 -0.21909,0.007 -0.0781,-0.002 -0.15614,-0.002 -0.23422,-0.002 -0.0705,5e-4 -0.14095,5e-5 -0.21144,-4.5e-4 -0.35082,-0.007 -0.40667,0.0968 0.27944,-0.21502 -0.0342,0.0125 -0.0446,0.0281 -0.0469,0.0572 -3.5e-4,0.0387 -3e-4,0.0774 4.7e-4,0.11615 0.002,0.0633 0.007,0.12096 -0.0282,0.17886 -0.17829,0.17329 -0.44729,0.32612 -0.72474,0.35786 -0.078,0.0138 -0.13233,6.6e-4 -0.19078,-0.0412 -0.0998,-0.0403 -0.12454,-0.15102 -0.15253,-0.22913 -0.0173,-0.0207 -0.0533,-0.25806 -0.0766,-0.22681 1.26812,-0.50247 0.54908,-0.32633 0.49211,-0.17704 -0.0195,0.051 -0.0309,0.10029 -0.0549,0.15081 -0.0713,0.12862 -0.17583,0.23852 -0.29214,0.34237 -0.19315,0.16183 -0.44782,0.31468 -0.72947,0.32973 -0.0883,-0.002 -0.16544,-0.0584 -0.23906,-0.0937 -0.14189,-0.0476 -0.27931,-0.10081 -0.41148,-0.16433 -0.054,-0.0588 -0.0954,-0.0382 -0.179,-0.037 -0.11756,0.002 -0.23509,0.005 -0.35267,0.006 -0.10524,0.008 -0.16623,0.003 -0.22451,-0.072 -4.4e-4,-0.004 -0.0622,-0.15096 -0.0279,-0.1 0.0668,0.17527 -8.6e-4,0.0285 0.51315,-0.20586 0.0145,-0.006 -0.028,0.0147 -0.042,0.0221 -0.0391,0.0208 -0.0774,0.0423 -0.11791,0.0612 -0.19716,0.0922 -0.39519,0.18318 -0.59279,0.27477 -0.17169,0.0614 -0.36252,0.0733 -0.54757,0.0873 -0.10436,0.005 -0.20056,0.046 -0.28999,0.0869 -0.20892,0.1008 0.0229,-0.0113 0.45347,-0.20939 0.009,-0.004 -0.0186,0.008 -0.0267,0.0139 -0.023,0.0155 -0.0378,0.0386 -0.059,0.0561 -0.0243,0.0258 -1.43953,0.636 -0.10781,0.0395 0.0119,-0.006 -0.0226,0.0123 -0.0325,0.0199 -0.40208,0.39669 -0.54343,0.31027 -0.88736,0.14152 -0.15142,-0.0668 -0.29052,-0.15399 -0.45309,-0.20302 -0.0435,-0.008 -0.0779,-0.0182 -0.11948,-2.6e-4 -0.0156,0.006 -0.0598,0.0306 -0.0443,0.0237 0.15979,-0.0719 0.63476,-0.29374 0.47738,-0.21849 -0.18991,0.0908 -0.38335,0.17679 -0.57504,0.26518 -0.11495,0.0571 -0.24984,0.052 -0.38057,0.056 -0.27007,0.0109 -0.53691,0.002 -0.804,-0.0308 -0.30011,-0.045 -0.59088,-0.11952 -0.85084,-0.24914 -0.0199,0.0118 -0.0534,-0.0321 -0.0781,-0.0223 -0.008,0.003 -0.0146,0.0238 -0.007,0.0205 0.74694,-0.31492 0.61973,-0.30939 0.4216,-0.17494 -0.15651,0.0975 -0.30491,0.20303 -0.4505,0.31082 -0.20699,0.15663 -0.44031,0.34684 -0.73735,0.3645 -0.10353,0.006 -0.19807,0.008 -0.27357,-0.0552 -0.0433,-0.0413 -0.0584,-0.0884 -0.0648,-0.14075 -0.003,-0.0473 -5.7e-4,-0.0949 5.9e-4,-0.14232 0.001,-0.0637 8.6e-4,-0.1273 5.6e-4,-0.19094 5.2e-4,-0.0566 -1.9e-4,-0.1131 4.2e-4,-0.16966 -0.003,-0.26602 -0.0278,-0.11336 0.54529,-0.32208 -0.16127,0.1487 -0.51466,0.25711 -0.65392,0.32455 -0.15475,0.0749 0.31301,-0.14513 0.47091,-0.21572 0.0307,-0.0138 -0.0567,0.0337 -0.0831,0.0525 -0.0408,0.0411 -0.0723,0.0851 -0.12509,0.11736 -0.44057,0.3875 -0.45176,0.16933 -0.79552,0.27045 -0.20844,0.0728 -0.10952,0.0395 0.45875,-0.2116 0.0221,-0.01 -0.0363,0.0238 -0.0568,0.0537 -0.018,0.0283 -0.005,0.0591 -0.0243,0.0873 -0.11679,0.11831 -0.24711,0.22733 -0.38721,0.32934 -0.27835,0.21031 -0.6127,0.33091 -0.94882,0.47678 -0.12405,-0.0903 -0.0801,-0.27071 -0.0494,-0.38774 0.0465,-0.13679 0.0906,-0.27399 0.12549,-0.413 -0.007,-0.19554 0.56537,-0.46525 0.56779,-0.1888 0.0279,0.26819 -0.461,0.30732 -0.72847,0.37335 -0.0858,0.0267 -0.17016,0.0511 -0.26053,0.065 -0.0617,0.0157 -0.082,-0.039 -0.0901,-0.0787 -0.005,-0.0695 -0.002,-0.13935 -7.1e-4,-0.20896 -0.0121,-0.0249 0.0105,-0.0547 -2.2e-4,-0.08 -0.0534,-0.12591 -0.39411,-0.37146 -0.50815,-0.46435 -0.2829,-0.18102 -0.54304,-0.41335 -0.88044,-0.53101 -0.23114,0.0178 -0.0658,0.009 0.46648,-0.21376 0.008,-0.003 -0.0165,0.008 -0.0224,0.0135 -0.0207,0.02 -0.0194,0.0521 -0.0212,0.0761 0.001,0.0534 0.005,0.10666 0.006,0.16007 0.002,0.097 8.8e-4,0.19409 5e-4,0.29112 4.6e-4,0.0897 0.001,0.17946 0.002,0.26918 0.002,0.045 5e-4,0.09 3.8e-4,0.13498 -5.8e-4,0.0632 -5e-5,0.12629 -4.1e-4,0.18944 -0.0112,0.0201 0.0183,0.17952 -0.005,0.0899 -0.91056,0.52558 -0.44217,0.16551 -0.24143,0.0225 0.21689,-0.16153 0.45363,-0.23544 0.73014,-0.36073 0.0163,-0.007 0.0644,-0.0308 0.0482,-0.0234 -0.16101,0.0739 -0.32155,0.14837 -0.48233,0.22257 0.0175,-0.0163 0.11042,-0.0523 0.0465,-0.0595 0,0 0.51407,-0.27069 0.51407,-0.27069 v 0 c 0.0832,0.0493 0.0797,0.0933 0.0111,0.15245 -0.18862,0.0879 -0.37658,0.17668 -0.56585,0.26364 -0.0164,0.007 -0.0675,0.0278 -0.0513,0.0199 0.15615,-0.0756 0.31432,-0.14836 0.47111,-0.22304 0.0166,-0.008 -0.0346,0.0139 -0.0505,0.0227 -0.007,0.004 -0.10617,0.0711 -0.10745,0.072 -0.26989,0.18684 -0.4163,0.35817 -0.80802,0.46788 -0.0751,-0.046 -0.0569,-0.10161 -0.0558,-0.17221 -3.6e-4,-0.063 1.7e-4,-0.12608 -4.1e-4,-0.18912 -1.1e-4,-0.0451 -0.002,-0.0902 4.4e-4,-0.13531 10e-4,-0.0903 0.002,-0.18056 0.002,-0.27084 -6.4e-4,-0.0962 -0.002,-0.19245 -0.004,-0.28867 -0.002,-0.054 -0.006,-0.10798 -0.008,-0.162 0.001,-0.23832 0.24132,-0.46771 0.63431,-0.36821 0.32342,0.14473 0.58102,0.37108 0.86681,0.55622 0.13957,0.10895 0.48249,0.34027 0.55952,0.4849 0.0131,0.0247 -0.0171,0.0563 -0.001,0.0806 2.4e-4,0.0674 -7.1e-4,0.13495 0.002,0.2024 8.2e-4,0.039 -0.006,0.0118 0.0342,0.009 0.0864,-0.0167 0.16764,-0.0461 0.25367,-0.0641 0.047,-0.009 0.18056,-0.0496 0.14047,-0.028 -0.15392,0.0828 -0.31859,0.15207 -0.47427,0.23274 -0.009,0.005 0.0236,0.003 0.0306,-0.003 0.0147,-0.0127 -0.0157,-0.0402 8.2e-4,-0.0521 -2.2e-4,-0.0179 -0.0198,-0.0444 -7.1e-4,-0.0536 0.77158,-0.37077 0.58446,-0.38026 0.532,-0.19633 -0.0406,0.13953 -0.0845,0.27826 -0.13176,0.4164 -0.0106,0.0322 -0.0723,0.30089 -0.008,0.29859 -1.02654,0.47994 -0.29347,0.15817 -0.095,0.005 0.13576,-0.0969 0.28525,-0.1943 0.37033,-0.32573 0.0662,-0.012 0.023,-0.0139 0.0362,-0.0645 0.0761,-0.20951 0.40025,-0.28681 0.64328,-0.35146 0.25343,-0.0485 0.73644,-0.057 -0.26534,0.20845 0.0648,-0.0225 0.10557,-0.0529 0.13631,-0.10499 0.14777,-0.15671 0.53031,-0.27689 0.65332,-0.33491 0.15646,-0.0738 -0.3125,0.14817 -0.46947,0.22128 -0.0274,0.0128 0.0952,-0.051 0.0825,-0.0379 0.6441,-0.25669 0.56408,-0.37656 0.56648,-0.10217 6.3e-4,0.0565 -7e-5,0.11295 3.4e-4,0.16943 -5.2e-4,0.0638 -0.002,0.12772 -0.001,0.19158 1.6e-4,0.0461 -4.4e-4,0.0922 -7.9e-4,0.13833 0.001,0.0404 0.006,0.0773 0.0403,0.1092 0.0672,0.0418 0.16209,0.0253 0.2398,0.015 0.2094,-0.0714 9.5e-4,-0.002 -0.47041,0.22292 -0.0101,0.005 0.0229,-0.006 0.0327,-0.0105 0.0464,-0.0244 0.077,-0.0682 0.12361,-0.0924 0.14541,-0.10735 0.29185,-0.21403 0.44626,-0.31302 0.21724,-0.13242 0.48401,-0.42624 0.74138,-0.27062 0.24878,0.13019 0.53316,0.19979 0.82503,0.2382 0.26856,0.0267 0.53724,0.0302 0.8075,0.0175 0.13049,-0.007 0.25574,-0.0159 0.36762,-0.0755 -0.15741,0.0734 -0.63198,0.29032 -0.47224,0.22021 0.24908,-0.10931 0.47791,-0.33808 0.7672,-0.2554 0.15801,0.0587 0.29534,0.14694 0.4481,0.21359 0.0816,0.0373 0.13424,0.0662 0.22403,0.0887 0.0226,0.006 0.0892,-0.003 0.0703,0.008 -0.44749,0.26996 -0.56858,0.38439 -0.47803,0.22099 0.003,-0.004 0.0216,-0.033 0.0257,-0.0349 0.18219,-0.0874 0.36774,-0.17016 0.55281,-0.25353 0.0167,-0.007 0.0699,-0.0252 0.0534,-0.0173 -0.16483,0.0792 -0.33078,0.15686 -0.49616,0.2353 0.004,-0.002 0.0452,-0.024 0.0476,-0.0263 0.0104,-0.0101 0.0212,-0.0441 0.0357,-0.0513 0.27686,-0.13721 0.38921,-0.18598 0.59697,-0.27686 0.0953,-0.0382 0.19439,-0.0693 0.3025,-0.0701 0.18208,-0.0138 0.36815,-0.0312 0.53128,-0.10285 -0.14942,0.07 -0.29807,0.14108 -0.44825,0.21001 -0.0217,0.01 0.0414,-0.0226 0.0628,-0.0332 0.031,-0.0153 0.0594,-0.034 0.0907,-0.049 0.18307,-0.0875 0.36325,-0.17946 0.55296,-0.25725 0.0113,-0.005 0.0207,0.0118 0.0311,0.0178 0.0259,0.0358 0.0148,0.0799 0.036,0.11785 0.0409,0.052 0.12098,0.0275 0.18803,0.0307 0.11748,-8e-4 0.23493,-0.004 0.35242,-0.006 0.0856,-3.2e-4 0.14408,0.004 0.19954,0.0592 0.12946,0.0658 0.26796,0.11472 0.40751,0.16468 0.0709,0.0315 0.13565,0.0778 0.22068,0.0644 0.033,-0.006 0.12878,-0.0471 0.0843,-0.0261 -0.94312,0.44537 -0.55912,0.29337 -0.41067,0.18188 0.1188,-0.0988 0.2276,-0.20167 0.30184,-0.32673 0.18071,-0.3184 -0.14069,-0.19164 0.62964,-0.45345 0.0863,0.0667 0.0522,0.18247 0.0965,0.26763 0.0274,0.0758 0.0492,0.15915 0.14135,0.20004 0.047,0.0273 0.10318,0.0147 0.15566,0.002 0.1849,-0.0699 0.44527,-0.20689 -0.43591,0.207 -0.0132,0.006 0.0267,-0.0118 0.0402,-0.0177 0.0136,-0.006 0.0286,-0.0122 0.041,-0.0203 0.0117,-0.008 0.0204,-0.0181 0.0305,-0.0272 0.0529,-0.0464 0.0457,-0.0906 0.042,-0.15176 -1.6e-4,-0.0391 -0.002,-0.0782 -0.003,-0.11734 7e-5,-0.0362 -0.007,-0.0697 0.024,-0.0999 0.55181,-0.25491 0.39663,-0.2591 0.78984,-0.25553 0.0708,-4.7e-4 0.14158,-8.1e-4 0.21238,1.7e-4 0.0785,2.1e-4 0.15691,8.1e-4 0.23536,0.002 0.0692,-7.4e-4 0.14001,-2e-4 0.20573,-0.02 -0.16409,0.0773 -0.32896,0.15348 -0.49227,0.2318 -0.0192,0.009 0.045,-0.0105 0.0608,-0.0233 0.0312,-0.0255 0.0333,-0.0703 0.0316,-0.10249 -0.002,-0.29578 -0.0442,-0.18907 0.54618,-0.40688 -0.004,0.0567 -10e-4,0.1136 0.003,0.17019 0.007,0.0546 0.0214,0.10785 0.0668,0.15079 0.0537,0.046 0.0962,0.10039 0.1691,0.1292 0.0686,0.0204 0.14244,0.01 0.21422,0.0101 0.0395,-0.002 0.0807,-0.002 0.11948,-0.01 0.0112,-0.002 0.0429,-0.0134 0.0329,-0.009 -0.16721,0.0801 -0.33701,0.15662 -0.50552,0.23493 0.006,-0.003 0.0126,-0.006 0.0189,-0.009 0.21948,-0.10924 0.43938,-0.21927 0.6685,-0.3143 -0.16675,0.0801 -0.33349,0.16013 -0.50024,0.2402 0.0217,-0.0167 0.0475,-0.0161 0.0496,-0.0327 0.002,-0.0535 0.002,-0.10701 0.001,-0.16051 -8e-5,-0.0957 -0.002,-0.19146 -0.003,-0.28718 -4e-4,-0.0848 -0.007,-0.17565 0.0342,-0.25518 0.53744,-0.25091 0.47216,-0.24979 0.92656,-0.33803 0.19865,-0.044 0.45269,-0.12807 0.60831,0.0246 0.0553,0.11547 0.0382,0.23551 0.0421,0.3573 6e-4,0.032 -8.5e-4,0.0639 0.0128,0.0947 0.0249,0.0507 0.0761,0.0411 0.13661,0.0369 0.25096,-0.0192 0.62795,-0.21589 -0.24597,0.17465 0.10882,-0.0483 0.2022,-0.11682 0.25359,-0.20951 0.0306,-0.0511 0.0303,-0.10213 0.1072,-0.12104 0.0651,-0.0308 0.0772,-0.0997 0.0776,-0.15604 0.0116,-0.0829 0.0261,-0.16612 0.0669,-0.2436 0.0437,-0.0942 0.0826,-0.18956 0.13649,-0.28051 0.0105,-0.0151 0.0227,-0.0294 0.0315,-0.0452 0.009,-0.0159 0.004,-0.0394 0.0215,-0.0496 0.27962,-0.15931 0.38062,-0.29759 0.64249,-0.27717 0.0679,0.0102 0.13312,0.0329 0.1606,0.088 0.0343,0.0926 0.002,0.19433 0.0271,0.28929 0.0153,0.0723 0.0188,0.0577 0.10517,0.0373 0.18432,-0.0629 0.45489,-0.20754 -0.41047,0.19916 -0.0297,0.0139 0.17983,-0.0939 0.16545,-0.11841 0.1103,-0.13678 0.20652,-0.28081 0.26723,-0.437 0.066,-0.23762 0.17589,-0.43644 0.62873,-0.41567 0.044,8.1e-4 0.12252,-0.002 0.11926,0.0502 -0.002,0.0436 -0.003,0.0872 -0.002,0.13082 -7.2e-4,0.0556 -0.002,0.11125 0.003,0.16675 0.003,0.0301 0.003,0.12596 0.0539,0.12735 -0.80901,0.3782 -0.50688,0.29673 -0.33098,0.0803 0.0962,-0.13634 0.16814,-0.27556 0.17381,-0.43501 -5.7e-4,-0.13254 -0.002,-0.26508 -0.003,-0.39763 -0.003,-0.209 0.59833,-0.49835 0.54684,-0.2551 -6e-5,0.0422 4.6e-4,0.0843 4.2e-4,0.12646 1e-5,0.0409 -3.9e-4,0.0818 -0.001,0.12271 1e-4,0.0715 -0.002,0.14289 -0.002,0.21434 -0.002,0.1053 -0.006,0.21069 0.003,0.3159 0.002,0.0192 0.003,0.0384 0.006,0.0575 0.001,0.0104 0.0168,0.0252 0.006,0.031 -0.71106,0.38153 -0.53603,0.35817 -0.48037,0.0958 0.0659,-0.38911 -0.17759,-0.18036 0.56029,-0.50839 0.004,-0.002 3.7e-4,0.007 5.6e-4,0.0111 0.001,0.0944 -2.4e-4,0.18939 -0.0162,0.28308 -0.003,0.0105 -0.0289,0.11276 -0.0396,0.11917 -0.3452,0.20606 -0.46199,0.31723 -0.81072,0.30718 -0.25048,-0.002 -0.50146,-0.006 -0.75165,0.006 -0.0224,0.004 -0.0843,0.0287 -0.0647,0.0192 0.90019,-0.43652 0.60626,-0.34351 0.47094,-0.21685 -0.0463,0.0556 -0.0292,0.11617 -0.0309,0.18065 -0.001,0.0816 -0.002,0.16341 -0.0191,0.24412 -0.0664,0.23646 -0.35862,0.48014 -0.67544,0.37041 -0.0656,-0.0654 -0.06,-0.1517 -0.0903,-0.22983 -0.022,-0.0623 -0.0346,-0.15608 -0.0688,-0.20154 0.16943,-0.0783 0.33884,-0.15666 0.50826,-0.23499 -0.0119,0.005 -0.0545,0.02 -0.064,0.0268 -0.033,0.0234 -0.0495,0.0617 -0.0781,0.0881 -0.0412,0.0712 -0.0681,0.1454 -0.1149,0.21392 -0.0949,0.0824 -0.20295,0.15353 -0.27293,0.25353 -0.0831,0.11495 -0.12851,0.24339 -0.17066,0.37136 -0.0899,0.23264 -0.19528,0.46446 -0.6666,0.38939 -0.0905,-0.0267 -0.13366,-0.0803 -0.14857,-0.15675 -0.0278,-0.1504 -0.001,-0.30436 -0.0126,-0.45597 -1.1e-4,-0.009 -0.0133,-0.13984 -0.003,-0.14503 0.65917,-0.3357 0.55176,-0.40513 0.54878,-0.21541 -7.6e-4,0.0638 3.9e-4,0.12761 1.5e-4,0.19142 2.9e-4,0.0917 0.003,0.18346 5e-4,0.27516 -0.0123,0.31209 -0.13648,0.30836 -0.60335,0.50189 -0.13505,0.0155 -0.27742,-0.0108 -0.40738,-0.0392 -0.0832,-0.0394 -0.13247,-0.10475 -0.21497,-0.14551 -0.0423,-0.0195 -0.0908,-0.0439 -0.14117,-0.0467 -0.0146,-8e-4 -0.0558,0.0115 -0.0435,0.005 0.59167,-0.31473 0.61649,-0.33527 0.45319,-0.21722 -0.0185,0.048 -0.0142,0.0932 -0.0163,0.14341 -0.0109,0.26459 -0.0293,0.1552 -0.56787,0.37789 -0.0582,-0.08 -0.14654,-0.13847 -0.21741,-0.21094 -0.0716,-0.0836 -0.13368,-0.15271 -0.13457,-0.25737 -0.004,-0.009 -0.004,-0.025 -0.0152,-0.0248 -0.0106,2e-4 -0.037,0.0171 -0.0277,0.0127 0.53983,-0.25539 0.66579,-0.32821 0.49002,-0.22748 -0.0821,0.0478 -0.16228,0.0975 -0.24282,0.14692 -0.0894,0.0609 -0.11627,0.13752 -0.17114,0.21749 -0.33517,0.15329 -0.45671,0.28376 -0.77574,0.27571 -0.0582,3e-4 -0.11643,7.3e-4 -0.17465,6.4e-4 -0.0585,3.1e-4 -0.11878,0.004 -0.17379,-0.0151 -0.0776,-0.027 -0.12759,-0.0713 -0.16453,-0.13277 -0.0375,-0.0831 -0.0889,-0.16199 -0.11426,-0.24857 -0.007,-0.0173 -0.0614,-0.15997 -0.0612,-0.16009 0.62185,-0.34878 0.64588,-0.3772 0.50122,-0.23446 -0.0581,0.22447 0.002,0.4629 -0.0128,0.69027 0.004,0.0946 0.002,0.18935 0.007,0.28399 0.003,0.0818 0.007,0.16397 -0.003,0.24561 -0.0431,0.28404 -0.50556,0.42429 -0.80305,0.31484 -0.30043,-0.10794 -0.60174,-0.23284 -0.92721,-0.28059 -0.27109,0.0139 -0.0845,0.0152 0.37298,-0.2198 0.0123,-0.006 -0.0301,0.003 -0.0424,0.009 -0.0306,0.0162 -0.0102,0.0559 -0.0207,0.0787 -0.004,0.0182 -0.0117,0.10041 -0.03,0.10993 -0.35746,0.18541 -0.38283,0.29544 -0.64625,0.2444 -0.11502,-0.0242 -0.23497,-0.0535 -0.32347,-0.12049 -0.0969,-0.0825 -0.17451,-0.17936 -0.30653,-0.23158 -0.0317,-0.0129 -0.0719,-0.0345 -0.1109,-0.0339 -0.011,1.7e-4 -0.04,0.0146 -0.0306,0.01 0.16422,-0.0833 0.33057,-0.1638 0.49586,-0.2457 -0.0256,0.006 -0.0173,-5.1e-4 -0.0175,0.0253 -1e-4,0.0609 0.002,0.12166 0.002,0.18251 6e-5,0.0588 0.011,0.12858 -0.0188,0.18249 -0.56298,0.2585 -0.41102,0.25995 -0.83737,0.25351 -0.18456,5.7e-4 -0.36949,7.5e-4 -0.55334,0.0153 -0.0312,0.003 -0.0627,0.006 -0.0937,0.0101 -0.0265,0.004 -0.10088,0.0276 -0.0785,0.0155 0.15253,-0.082 0.31941,-0.14571 0.47232,-0.22723 0.0118,-0.006 -0.0304,-0.008 -0.0426,-0.002 -0.0163,0.008 0.0176,0.0385 9.3e-4,0.0462 -0.002,0.26959 -0.0179,0.18341 -0.55429,0.40026 -0.0498,-0.0615 -0.0453,-0.14548 -0.091,-0.20969 -0.0236,-0.0783 -0.067,-0.14513 -0.14777,-0.19592 -0.0958,-0.0651 -0.19691,-0.13117 -0.32786,-0.13626 -0.093,1.7e-4 -0.186,8e-5 -0.27899,7.6e-4 -0.25954,0.005 -0.37353,0.13534 0.39251,-0.22507 0.005,-0.002 -0.0108,0.002 -0.0162,0.002 -0.0116,0.002 -0.0282,-0.004 -0.035,0.004 -0.0191,0.0217 0.0146,0.0763 -0.008,0.0994 -0.35869,0.1789 -0.41239,0.24043 -0.70201,0.30976 -0.0932,0.0323 -0.18694,0.0849 -0.28713,0.0941 -0.057,-3.9e-4 -0.11473,-2.9e-4 -0.17062,0.01 -0.21142,0.0661 0.0285,-0.007 0.47364,-0.23499 0.005,-0.002 -0.0142,-0.006 -0.019,-0.002 -0.0133,0.009 0.0102,0.0542 -9.3e-4,0.065 9e-5,0.0556 0.001,0.11124 0.003,0.16684 9.7e-4,0.0387 0.004,0.0775 -0.004,0.116 -0.32708,0.1656 -0.42401,0.34484 -0.722,0.23965 -0.12968,-0.0454 -0.26347,-0.0897 -0.37638,-0.15921 -0.0938,-0.0836 -0.17698,-0.17531 -0.27714,-0.25492 -0.0595,-0.0441 -0.10651,-0.0949 -0.19227,-0.087 -0.13308,-0.002 -0.26618,-0.002 -0.39926,-0.002 -0.18329,8e-5 -0.36659,0.002 -0.54987,2.2e-4 -0.18151,-0.002 -0.36323,-0.003 -0.54463,0.003 -0.22714,0.0209 -0.30931,0.13731 0.44575,-0.22689 0.011,-0.006 -0.0277,-0.0106 -0.038,-0.005 -0.005,0.003 -2.6e-4,0.0104 -3.9e-4,0.0155 -0.001,0.0582 -8.9e-4,0.11645 -7.3e-4,0.17467 -9e-4,0.072 -3.3e-4,0.14396 0.001,0.21592 -2e-5,0.0676 5.3e-4,0.13526 -0.004,0.20279 -0.006,0.0829 -0.007,0.16671 -0.0552,0.24236 -0.59423,0.29849 -0.45931,0.38692 -0.77684,0.11737 -0.22479,-0.19115 -0.44021,-0.39022 -0.69229,-0.55919 -0.17348,-0.1083 -0.37912,-0.17768 -0.49858,-0.33439 -0.11629,-0.11027 -0.2201,-0.22893 -0.34523,-0.33299 -0.15546,-0.14067 -0.34101,-0.28042 -0.58794,-0.28617 -0.18167,0.0184 -0.33933,0.0689 -0.49598,0.14618 -0.23874,0.10455 -0.15243,0.0682 0.2917,-0.14368 0.0373,-0.0178 -0.0756,0.0341 -0.11152,0.0536 -0.2525,0.13728 -0.40644,0.30362 -0.74798,0.37752 -0.0174,-0.006 -0.0377,-0.01 -0.0524,-0.02 -0.0526,-0.0361 -0.0242,-0.19527 -0.0523,-0.24614 -0.024,-0.14363 -0.0469,-0.28679 -0.0523,-0.43171 -0.027,-0.0547 -0.14317,-0.0397 -0.19791,-0.0517 -0.19684,-0.0225 -0.39394,-0.0556 -0.59373,-0.0483 0,0 0.49425,-0.28862 0.49425,-0.28862 z"
         id="path5675"
         style="opacity:1;fill:#1a1a1a;fill-opacity:1;fill-rule:nonzero;stroke:url(#linearGradient5745);stroke-width:0.22055504;stroke-linecap:round;stroke-linejoin:round;stroke-miterlimit:4;stroke-dasharray:none;stroke-dashoffset:0;stroke-opacity:1;paint-order:normal" />
      <path
         inkscape:connector-curvature="0"
         d="m 83.9072,115.67622 c 0.04575,0.13083 0.05304,0.26519 0.05975,0.40137 0.0069,0.16382 0.0096,0.32774 0.0135,0.49164 0.0012,0.0828 7.79e-4,0.16562 3.05e-4,0.24844 0.0025,0.0527 -0.002,0.10588 0.0018,0.15857 -0.08513,-0.19359 0.0045,-0.0359 -0.463756,0.17849 -0.02183,0.01 0.03448,-0.0316 0.05144,-0.0475 0.0526,-0.0497 0.09996,-0.1027 0.148783,-0.15544 0.177699,-0.1804 0.416995,-0.35824 0.684179,-0.38842 0.044,-0.006 0.08821,-0.004 0.132403,-0.002 0.04402,8.2e-4 0.08806,0.002 0.132088,0.002 0.07673,-0.002 0.142826,-0.007 0.209428,0.0311 0.06946,0.0705 0.06228,0.15925 0.06427,0.24841 0.01,0.0806 -0.01612,0.16789 0.02059,0.24365 0.03083,0.073 0.05104,0.14831 0.08718,0.22014 0.06468,0.1238 0.09409,0.26232 0.129433,0.3952 0.03792,0.10494 0.02965,0.23163 0.110829,0.31987 0.05157,0.0357 0.13644,-0.015 0.180644,-0.0377 -0.797668,0.46315 -0.178722,0.0673 -0.0063,-0.0694 0.360152,-0.19799 0.490548,-0.42479 0.698679,-0.14224 0.03118,0.0463 0.05508,0.0944 0.06343,0.14821 0.0023,0.17066 -0.01211,0.34199 0.0073,0.51204 0.01657,0.0638 0.0126,0.15063 0.08818,0.18072 0.297873,-0.0296 -0.669387,0.41059 -0.305165,0.16187 0.03392,-0.0232 0.06701,-0.0474 0.100506,-0.0711 0.3531,-0.22656 0.729664,-0.42928 1.118878,-0.60045 0.199485,-0.0979 0.230381,0.024 0.26205,0.1802 0.02089,0.0996 0.0096,0.2014 0.02229,0.30137 0.0165,0.083 0.02241,0.16981 0.0891,0.23298 0.05065,0.0683 0.106533,0.1328 0.164573,0.19584 0.05657,0.067 0.129458,0.0106 0.18773,-0.0247 0.253233,-0.13228 -0.208625,0.10925 -0.337744,0.172 -0.02295,0.0111 0.04233,-0.0276 0.0636,-0.0413 0.04424,-0.0285 0.08888,-0.0563 0.133556,-0.0842 0.04518,-0.0229 0.0759,-0.0602 0.114696,-0.0906 0.608132,-0.32526 0.453374,-0.28289 0.694377,0.0169 0.07103,0.1015 0.157731,0.19494 0.248132,0.28256 0.04834,0.0478 0.09532,0.0838 0.165298,0.0966 0.186876,0.0217 0.307342,-0.0951 -0.433801,0.22347 -0.01033,0.004 0.03009,-0.0414 0.05576,-0.0993 0.02706,-0.0942 0.07556,-0.17983 0.123733,-0.26595 0.0362,-0.062 0.06412,-0.12748 0.09864,-0.19027 0.02207,-0.0489 0.08659,-0.0678 0.10287,-0.11868 0.756884,-0.28152 0.396582,-0.24063 0.677233,0.11826 0.08472,0.11482 0.200902,0.20704 0.328871,0.28 0.0692,0.0421 0.148286,0.0513 0.229214,0.0542 0.279295,-0.0376 -0.491567,0.41844 -0.405808,0.21255 0.0064,-0.0281 0.0036,-0.0565 0.0078,-0.0851 0.142329,-0.19018 0.41456,-0.28584 0.65793,-0.34706 0.07676,0.045 0.104196,0.13238 0.142529,0.20387 0.07205,0.11847 0.162615,0.22611 0.257445,0.32997 0.04823,0.043 0.10051,0.0508 0.164575,0.0516 0.193972,-0.005 0.38233,-0.0704 0.566261,-0.12265 0.07721,-0.0313 0.166771,-0.0387 0.243334,-0.0716 0.01515,-0.007 0.05606,-0.0333 0.04146,-0.0258 -0.428381,0.21862 -0.579843,0.32782 -0.423666,0.2167 0.02908,-0.0205 0.03212,-0.0351 0.03254,-0.068 -3.07e-4,-0.0807 -0.0013,-0.1614 -0.0031,-0.24207 -0.03635,-0.20767 0.428263,-0.42224 0.539251,-0.21001 0.08818,0.10802 0.22055,0.17722 0.33563,0.25939 0.07419,0.0563 0.127761,0.1566 0.227506,0.17729 0.119957,0.0153 0.241694,0.0141 0.362577,0.0131 0.128799,-0.005 0.123466,-0.0828 0.210736,0.0498 0.06691,0.0801 0.102192,0.17836 0.162664,0.26102 0.08807,0.0754 0.260897,0.0514 0.375005,0.0544 0.05878,5.9e-4 0.109443,0.006 0.166215,-0.0105 0.01975,-0.006 0.07313,-0.0357 0.05512,-0.0263 -0.824856,0.42809 -0.512236,0.29251 -0.381037,0.18557 0.04148,-0.0423 0.03522,-0.10361 0.03493,-0.15675 -0.0025,-0.11686 4.01e-4,-0.23377 6.47e-4,-0.35065 -1.2e-4,-0.41596 -0.08615,-0.24865 0.519593,-0.51818 0.06984,0.0791 0.139947,0.15359 0.223573,0.2211 0.137323,0.13769 0.29112,0.25572 0.466627,0.35013 0.144878,0.069 0.296579,0.12354 0.456962,0.15258 0.17078,-0.0836 0.358528,-0.15951 -0.412527,0.21399 -0.0086,0.004 0.01093,-0.0148 0.01427,-0.0233 0.0065,-0.0163 0.0086,-0.0421 0.01073,-0.0593 0.0052,-0.0481 -7.07e-4,-0.0962 0.0027,-0.14432 0.125349,-0.18102 0.360971,-0.31646 0.594438,-0.34247 0.06778,-0.007 0.135642,-0.0138 0.200378,0.007 0.122793,0.0869 0.22848,0.19269 0.3352,0.29541 0.111004,0.12799 0.258256,0.1157 0.425852,0.12656 0.142077,0.002 0.293339,0.0238 0.432248,-0.0168 0.02003,-0.006 0.03757,-0.0172 0.05635,-0.0259 -0.144185,0.0727 -0.288371,0.14542 -0.432556,0.21814 0.04419,-0.0359 0.06946,-0.0807 0.07357,-0.13396 2.77e-4,-0.0452 -0.0021,-0.0905 -0.0034,-0.13575 -0.03277,-0.23759 0.35523,-0.32958 0.58686,-0.33809 0.123733,-0.007 0.247645,-0.002 0.371471,-8.2e-4 0.157225,0.002 0.314438,-0.002 0.471659,-6.1e-4 0.131201,0.006 0.263838,-0.0116 0.393022,0.0119 0.113861,0.0366 0.199229,0.11211 0.249835,0.21024 0.09238,0.28777 -0.0461,0.20065 -0.467268,0.36946 0.0013,-0.10269 4.74e-4,-0.20539 -0.0015,-0.30806 -7.96e-4,-0.0617 -7.25e-4,-0.12357 -0.0016,-0.18535 -0.0013,-0.0625 0.0013,-0.12493 0.0028,-0.18739 0.0011,-0.1194 0.0022,-0.23887 -0.0025,-0.35822 0.659597,-0.32575 0.391221,-0.32811 0.547251,-0.095 0.09016,0.0927 0.213892,0.14766 0.333441,0.20232 0.2742,0.1219 0.567929,0.19859 0.86282,0.26614 0.110615,0.0152 0.220265,0.0515 0.332465,0.0588 0.18293,0.0119 0.59135,-0.25918 -0.351563,0.21331 0.07449,-0.0755 0.04992,-0.21619 0.04803,-0.31255 0.0109,-0.0772 -0.01548,-0.13523 -0.04969,-0.2024 -0.03625,-0.0347 -0.0656,-0.0753 -0.09586,-0.11437 -0.0023,-0.003 -0.01039,-0.007 -0.0069,-0.009 0.665293,-0.31633 0.448283,-0.33375 0.484463,-0.0409 0.0317,0.10184 0.0886,0.18348 0.18917,0.23679 0.0626,0.0298 0.1349,0.0267 0.20365,0.027 0.0672,-0.007 0.14822,0.0158 0.20744,-0.0171 -0.78433,0.43364 -0.39648,0.22918 -0.26337,0.0299 0.0418,-0.0673 0.0448,-0.14126 0.0478,-0.21645 0.003,-0.11864 0.002,-0.2373 -3.5e-4,-0.35594 -0.005,-0.22237 -0.0535,-0.0775 0.4951,-0.27736 0.0117,-0.004 -0.002,0.023 -9.1e-4,0.0344 8.4e-4,0.0111 0.005,0.0221 0.006,0.0332 0.0341,0.0936 0.10661,0.13966 0.2065,0.16626 0.12701,0.0245 0.25715,0.0143 0.38543,0.0306 0.0853,-0.008 0.23088,0.0543 0.3123,0.0433 0.0136,-0.002 0.0467,-0.0264 0.0345,-0.0205 -0.14911,0.0717 -0.29705,0.14546 -0.44557,0.2182 0.0597,-0.10601 0.0536,-0.22418 0.0192,-0.33575 -0.058,-0.0585 -0.11331,-0.1118 -0.15542,-0.18281 0.005,0.009 -0.0523,-0.14079 -0.0485,-0.13524 0.008,0.0122 0.007,0.0447 0.0221,0.0385 0.1647,-0.0706 0.31461,-0.16668 0.47193,-0.25 0.0501,0.10193 0.15298,0.17342 0.25261,0.23386 0.1295,0.0687 0.25854,0.13755 0.39888,0.1862 0.045,0.003 0.0942,0.0404 0.14055,0.0376 0.008,-4.6e-4 0.0265,-0.0148 0.0196,-0.0114 -0.4752,0.23377 -0.51864,0.37924 -0.44393,0.18411 0.0224,-0.15107 0.0195,-0.30428 0.0158,-0.45637 -0.0467,-0.25043 0.33864,-0.36818 0.58451,-0.3716 0.15167,0.009 0.30206,0.0411 0.45364,0.0586 0.34813,0.0408 0.41412,-0.0776 -0.20067,0.22891 0.0553,-0.12977 0.0459,-0.27772 0.0451,-0.41543 -0.002,-0.0534 -0.002,-0.10686 -0.005,-0.16027 -0.0183,-0.21572 0.34706,-0.30009 0.55657,-0.29677 0.0466,0.002 0.0933,0.002 0.1399,0.002 -0.58939,0.30803 -0.45654,0.34877 -0.45206,-0.007 0.005,-0.0923 -0.0172,-0.18775 0.0141,-0.27715 0.27436,-0.42905 0.41614,-0.34442 0.67126,-0.22673 0.0933,0.0367 0.19198,0.0504 0.27928,0.098 0.16552,0.10722 0.50079,-0.17738 -0.39087,0.24745 -0.009,0.004 0.0173,-0.01 0.0228,-0.0171 0.008,-0.0106 0.0108,-0.0237 0.0162,-0.0355 0.0149,-0.0555 0.0247,-0.1131 0.0247,-0.17045 0.61368,-0.30012 0.43883,-0.32176 0.54095,-0.0347 0.0147,0.0409 0.01,0.0585 0.0539,0.0614 0.0798,-0.002 0.15964,-5.5e-4 0.23946,-8.2e-4 0.0414,-0.0117 0.0966,0.0112 0.13766,-0.002 0.008,-0.002 0.0266,-0.0206 0.0189,-0.0167 -0.45693,0.22889 -0.55682,0.37007 -0.44445,0.21803 0.032,-0.0631 0.002,-0.12334 -0.0213,-0.18507 -0.0473,-0.13674 -0.12822,-0.2612 -0.19779,-0.38922 -0.009,-0.0161 -0.016,-0.033 -0.026,-0.0484 -0.007,-0.0107 -0.0383,-0.0494 -0.0522,-0.0578 -0.005,-0.003 -0.0231,8.2e-4 -0.0179,-0.002 0.49492,-0.24174 0.56867,-0.35444 0.45307,-0.19323 -0.0303,0.11495 -0.0289,0.23487 -0.0295,0.35248 -0.0157,-0.002 0.0139,0.0897 0.0157,0.0744 0.0267,-0.22255 -0.55696,0.39531 -0.45563,0.18332 0.0251,-0.0842 0.0257,-0.17262 0.0272,-0.25933 0.002,-0.0832 -2.2e-4,-0.16644 -2.9e-4,-0.24965 -9e-4,-0.0526 0.0167,-0.0841 -0.0455,-0.10033 0,0 0.4638,-0.27503 0.4638,-0.27503 v 0 c 0.0704,0.047 0.0843,0.068 0.0774,0.14511 4e-4,0.0839 -9.1e-4,0.16767 -9.1e-4,0.2515 -0.002,0.0906 -8.3e-4,0.18164 -0.0175,0.27131 -0.0588,0.24023 -0.56555,0.49291 -0.55725,0.18718 0.003,-0.12194 0.004,-0.24435 0.02,-0.36551 0.0469,-0.30481 0.53658,-0.45445 0.6256,-0.16236 0.0678,0.13082 0.15116,0.25552 0.20101,0.39342 0.0302,0.0703 0.0681,0.13993 0.0447,0.21622 -0.0728,0.26606 -0.4191,0.31851 -0.66527,0.30946 -0.0838,2.5e-4 -0.17246,0.01 -0.25417,-0.007 -0.052,-0.0214 -0.0679,-0.0568 -0.0799,-0.10558 -0.10146,-0.30468 -0.0922,-0.21404 0.44567,-0.43861 -0.005,0.0613 -0.007,0.12288 -0.0221,0.1833 -0.0497,0.23913 -0.3958,0.44932 -0.6161,0.29829 -0.0871,-0.0425 -0.18809,-0.0546 -0.27595,-0.0967 -0.0144,-0.007 -0.0642,-0.0301 -0.084,-0.0351 -0.0362,-0.009 -0.0401,0.007 -0.0397,0.007 0.46919,-0.25026 0.61461,-0.29332 0.42256,-0.23393 -0.0557,0.0754 -0.0202,0.17376 -0.0298,0.2599 4.8e-4,0.38152 0.0633,0.23613 -0.49299,0.5329 -0.0455,-0.002 -0.0911,-0.002 -0.13669,-8.3e-4 -0.0331,0.002 -0.0757,0.0224 -0.0588,0.0122 0.48018,-0.28756 0.45068,-0.42793 0.45059,-0.24785 3e-5,0.0546 0.002,0.10936 -3.1e-4,0.16404 -0.004,0.14751 -0.005,0.29607 -0.0277,0.44228 -0.49655,0.28213 -0.37278,0.31259 -0.75951,0.26215 -0.14913,-0.0193 -0.29898,-0.0537 -0.45002,-0.0476 -0.0267,0.003 -0.10087,0.033 -0.0781,0.0199 0.65068,-0.37517 0.43193,-0.38612 0.43282,-0.17795 -0.002,0.15518 -0.002,0.31048 -0.0107,0.46549 -0.0275,0.2847 -0.43048,0.40674 -0.67266,0.28936 -0.14084,-0.0546 -0.27531,-0.12263 -0.40575,-0.19529 -0.1098,-0.071 -0.21768,-0.15171 -0.27793,-0.26403 0.51912,-0.35044 0.41459,-0.44031 0.52647,-0.14498 0.0431,0.075 0.11312,0.12171 0.16123,0.19277 0.0365,0.12517 0.0428,0.25023 0.003,0.37608 -0.60876,0.35286 -0.36799,0.31 -0.85801,0.24965 -0.13236,-0.01 -0.26912,5.8e-4 -0.39696,-0.0371 -0.1121,-0.0412 -0.19241,-0.10405 -0.23643,-0.20934 -0.0844,-0.28308 0.54595,-0.53259 0.48241,-0.25941 -5.7e-4,0.11905 4.7e-4,0.23809 9.1e-4,0.35714 -5.6e-4,0.0807 0.004,0.16225 -0.0357,0.23694 -0.12556,0.25426 -0.42889,0.36006 -0.68311,0.48834 -0.0723,0.006 -0.1451,0.003 -0.21763,0.003 -0.0772,-0.002 -0.15427,-0.01 -0.220109,-0.0504 -0.106758,-0.068 -0.171844,-0.16203 -0.210662,-0.27533 -0.01385,-0.0729 -0.07169,-1.15308 0.493341,-0.44285 0.0301,0.0428 0.0628,0.0838 0.0989,0.12257 0.0358,0.0735 0.0702,0.13883 0.0569,0.22277 1.9e-4,0.11842 0.009,0.24102 -0.0223,0.35655 -0.590132,0.30338 -0.426966,0.30719 -0.944132,0.19212 -0.29803,-0.0733 -0.596217,-0.15038 -0.876566,-0.27009 -0.129143,-0.0582 -0.26159,-0.12005 -0.354315,-0.22365 -0.17511,-0.2603 -0.0041,-0.1844 0.430248,-0.39697 0.0025,-8.4e-4 -8.78e-4,0.005 -0.0014,0.007 -0.0045,0.12014 -0.0037,0.24038 -0.0025,0.36059 0.0015,0.0616 0.0041,0.12315 0.0028,0.18478 -8.2e-4,0.062 -6.35e-4,0.1242 -9.07e-4,0.1863 -0.0011,0.10244 -7.86e-4,0.20491 0.0026,0.30731 -0.698346,0.37164 -0.436636,0.39091 -0.512826,0.11004 -0.04,-0.0858 -0.115938,-0.14778 -0.217157,-0.1692 -0.12905,-0.0108 -0.259002,-0.004 -0.388473,-0.006 -0.155813,5.8e-4 -0.311597,-0.003 -0.467416,-0.002 -0.124773,5.6e-4 -0.249845,2.6e-4 -0.374323,0.009 -0.02722,0.004 -0.103492,0.0316 -0.08016,0.0182 0.149453,-0.0854 0.302926,-0.16486 0.451876,-0.25098 0.0047,-0.002 -0.01289,-0.004 -0.01664,-6.5e-4 -0.0095,0.009 0.01182,0.03 2.25e-4,0.0387 9.07e-4,0.0461 0.0032,0.092 0.005,0.13801 2.21e-4,0.0645 -0.01403,0.12105 -0.05798,0.17428 -0.534945,0.29239 -0.488678,0.33447 -1.013037,0.30253 -0.174274,-0.0128 -0.342918,-0.0154 -0.453755,-0.15393 -0.09903,-0.0956 -0.193802,-0.204 -0.321056,-0.2686 -0.06167,-0.005 -0.125192,-0.002 -0.184519,0.0154 -0.181771,0.089 0.02751,-0.0131 0.43255,-0.22971 0.01529,-0.008 -0.03479,0.01 -0.04854,0.0197 -4.56e-4,3.4e-4 -0.0251,0.0353 -0.02573,0.0361 -0.035,-1.7e-4 -0.0083,0.0961 -0.01581,0.12364 -0.0011,0.0152 6.11e-4,0.0992 -0.01146,0.1069 -0.207298,0.13249 -0.334656,0.3026 -0.555862,0.2759 -0.160351,-0.0387 -0.31224,-0.0986 -0.458214,-0.1704 -0.178355,-0.0969 -0.332808,-0.219 -0.477117,-0.35509 -0.07791,-0.0621 -0.144201,-0.13366 -0.216242,-0.19926 0.156109,-0.0805 0.315914,-0.15522 0.468328,-0.24135 0.0073,-0.004 -0.01535,-0.0137 -0.02303,-0.0103 -0.0098,0.004 -0.01257,0.0171 -0.01438,0.027 -0.01366,0.0746 0.0079,0.15457 -0.0019,0.22928 0.0011,0.11558 0.0038,0.23109 0.0073,0.34661 8.84e-4,0.0639 0.0056,0.12916 -0.01675,0.19082 -0.182486,0.21994 -0.499783,0.35676 -0.798315,0.33972 -0.134604,-0.004 -0.319514,0.0174 -0.410767,-0.0911 -0.05812,-0.0845 -0.09215,-0.1828 -0.162362,-0.26159 -0.0075,-0.01 -0.01344,-0.0211 -0.02246,-0.03 -0.0053,-0.005 -0.139445,0.0418 -0.156972,0.022 -0.125284,-0.002 -0.253552,0.002 -0.375499,-0.0272 -0.09665,-0.0436 -0.156241,-0.12565 -0.231976,-0.19318 -0.120672,-0.0885 -0.262775,-0.16039 -0.354757,-0.27604 -0.0078,-0.0153 -0.04305,-0.0342 -0.02788,-0.044 0.540234,-0.34707 0.470211,-0.43015 0.468741,-0.22657 -3.01e-4,0.0803 5.49e-4,0.16055 0.0044,0.24075 0.0022,0.0374 0.0124,0.0727 -0.01406,0.10509 -0.19335,0.22121 -0.524271,0.29841 -0.807437,0.37911 -0.19046,0.0535 -0.386432,0.11787 -0.588023,0.11403 -0.07533,-0.009 -0.135996,-0.0355 -0.187749,-0.0877 -0.09205,-0.10974 -0.183115,-0.22036 -0.260875,-0.33914 -0.01454,-0.0235 -0.06925,-0.16007 -0.104651,-0.14289 -0.411824,0.12647 0.620063,-0.30991 0.29022,-0.1776 -0.02455,0.02 -0.0077,0.0493 -0.0104,0.0772 -0.02602,0.20391 -0.335157,0.33029 -0.551551,0.30416 -0.08668,-0.009 -0.169273,-0.0297 -0.240882,-0.0778 -0.129192,-0.081 -0.250656,-0.17779 -0.338854,-0.2969 -0.02211,-0.0295 -0.181712,-0.29666 -0.163935,-0.30795 0.152041,-0.0965 0.322531,-0.16641 0.483796,-0.24962 -0.03754,-0.009 -0.06594,0.0905 -0.117352,0.095 -0.03774,0.0627 -0.0652,0.12746 -0.100954,0.19079 -0.04804,0.0843 -0.104496,0.16585 -0.124395,0.26031 -0.08317,0.20467 -0.309513,0.46103 -0.587262,0.37638 -0.07265,-0.0247 -0.125817,-0.0701 -0.177291,-0.12221 -0.09019,-0.0906 -0.178731,-0.18434 -0.248819,-0.28905 -0.247623,-0.31295 -0.265849,-0.20224 0.304613,-0.48583 0.0081,-0.004 -0.0044,0.0163 -0.0065,0.0243 -0.0444,0.0291 -0.07972,0.0616 -0.116176,0.0953 -0.263734,0.15867 -0.524329,0.32185 -0.806532,0.45372 -0.08697,0.0358 -0.174737,0.0495 -0.23574,-0.0305 -0.05514,-0.0643 -0.110131,-0.1287 -0.164251,-0.19368 -0.06777,-0.0758 -0.08364,-0.16526 -0.100947,-0.26001 -0.01993,-0.0996 -0.0046,-0.20066 -0.02039,-0.30111 -0.02745,-0.15752 -0.03333,-0.18362 -0.202752,-0.10432 -0.114669,0.0532 -0.06664,0.0298 -0.186411,0.0908 -0.03849,0.0195 -0.153212,0.0796 -0.115345,0.059 0.703707,-0.38268 0.260133,-0.14285 0.116311,-0.0453 -0.208787,0.14985 -0.506086,0.48785 -0.770015,0.3693 -0.08021,-0.0551 -0.09191,-0.13764 -0.106098,-0.22433 -0.0215,-0.16859 -8.1e-5,-0.33913 -0.01488,-0.50845 -0.0036,-0.0463 -0.02095,-0.0878 -0.04768,-0.12763 -0.02204,-0.0287 -0.04713,-0.0575 -0.08072,-0.0761 -0.01497,-0.008 -0.06721,0.0117 -0.05232,0.003 0.140343,-0.079 0.283365,-0.15384 0.425046,-0.23077 -0.288504,0.22761 -0.579195,0.42616 -0.936525,0.5708 -0.07801,0.0265 -0.167519,0.0542 -0.228658,-0.0149 -0.07852,-0.10134 -0.07915,-0.22617 -0.111398,-0.34342 -0.03469,-0.12994 -0.07021,-0.26142 -0.133712,-0.3826 -0.03449,-0.0721 -0.05917,-0.14604 -0.08826,-0.21909 -0.04338,-0.0839 -0.02202,-0.1729 -0.026,-0.26411 -0.0023,-0.064 0.01089,-0.14804 -0.04031,-0.19944 -0.06064,-0.023 -0.130005,-0.007 -0.194016,-0.0109 -0.0445,-2.6e-4 -0.08899,-2.6e-4 -0.133466,-0.002 -0.04112,-1.8e-4 -0.0823,0.002 -0.121964,0.0129 -0.166508,0.0653 -0.43732,0.22882 0.386983,-0.21104 0.05841,-0.0312 -0.169702,0.091 -0.120966,0.0954 -0.15741,0.15677 -0.54678,0.66452 -0.743181,0.45123 0.0036,-0.0533 -4.65e-4,-0.10708 0.0022,-0.16047 -1.88e-4,-0.0829 5.2e-5,-0.16584 9.97e-4,-0.24877 0.0026,-0.16424 0.0016,-0.32859 -0.0056,-0.49274 -0.0078,-0.13164 -0.01701,-0.26254 -0.06343,-0.38849 0,0 0.489132,-0.24101 0.489132,-0.24101 z"
         id="path5683"
         style="opacity:0.85399996;fill:#1a1a1a;fill-opacity:1;fill-rule:nonzero;stroke:url(#linearGradient5737);stroke-width:0.21279886;stroke-linecap:round;stroke-linejoin:round;stroke-miterlimit:4;stroke-dasharray:none;stroke-dashoffset:0;stroke-opacity:1;paint-order:normal" />
      <path
         inkscape:connector-curvature="0"
         d="m 116.21465,157.75468 c -0.34533,-0.006 -0.69077,-0.006 -1.03616,-0.006 -0.38708,-7.7e-4 -0.77416,4.4e-4 -1.16124,0.002 -0.21621,8.1e-4 -0.43242,0.001 -0.64861,0.005 -0.1522,4.1e-4 -0.30439,-0.002 -0.4566,-0.002 0,0 0.6956,-0.50538 0.6956,-0.50538 v 0 c 0.15416,-5.8e-4 0.30831,-0.003 0.46247,-0.002 0.21195,0.003 0.42392,0.004 0.63588,0.005 0.38567,0.001 0.77134,0.002 1.15701,0.002 0.35091,1.2e-4 0.70187,1.6e-4 1.05273,-0.006 0,0 -0.70108,0.50936 -0.70108,0.50936 z"
         id="path5823"
         style="opacity:0.33900003;fill:#87aade;fill-opacity:1;fill-rule:nonzero;stroke:url(#linearGradient5831);stroke-width:0.40000001;stroke-linecap:round;stroke-linejoin:round;stroke-miterlimit:4;stroke-dasharray:none;stroke-dashoffset:0;stroke-opacity:1;paint-order:normal" />
      <path
         inkscape:connector-curvature="0"
         d="m 110.83703,151.47938 c 0.42622,-0.28683 0.61696,-0.7872 0.74658,-1.32136 0.0466,-0.33595 0.11572,-0.66966 0.12538,-1.02171 -0.0131,-0.0609 0.007,-0.23857 -0.0741,-0.27772 -0.0105,-0.0115 -0.021,-0.0234 -0.0314,-0.0351 0,0 1.48047,0.61963 1.48047,0.61963 v 0 c 0.0105,0.0168 0.0209,0.0336 0.0313,0.0503 0.0447,0.12887 0.0538,0.25285 0.0525,0.37387 -0.0233,0.3553 -0.10825,0.68697 -0.16186,1.02815 -0.13252,0.55001 -0.32138,1.07093 -0.73038,1.39956 0,0 -1.43796,-0.81621 -1.43796,-0.81621 z"
         id="path5841"
         style="opacity:0.43800001;fill:#5f8dd3;fill-opacity:1;fill-rule:nonzero;stroke:none;stroke-width:0.16972092;stroke-linecap:round;stroke-linejoin:round;stroke-miterlimit:4;stroke-dasharray:none;stroke-dashoffset:0;stroke-opacity:1;paint-order:normal" />
      <path
         sodipodi:nodetypes="cssssssscsssssssscccc"
         inkscape:connector-curvature="0"
         id="path5889"
         d="m 89.655696,77.507201 c 0,0 3.507841,-2.038462 5.454376,-3.378836 2.719139,-1.872389 5.598838,-2.723222 8.716268,-3.521616 1.46777,-0.375909 4.17583,-1.113389 5.67602,-1.308286 1.24891,-0.162251 3.11601,-0.432542 4.37021,-0.496722 2.27321,-0.116322 3.202,-0.184725 5.35825,-0.23565 2.46005,-0.05827 4.95175,0.930198 7.54231,1.17288 2.869,0.268775 6.8333,1.500561 9.70292,1.75967 1.17454,0.106056 2.44975,0.848442 2.44975,0.848442 0,0 12.66798,3.268184 -0.79382,-1.467027 -13.4618,-4.735208 -8.96367,-2.562649 -13.54738,-3.912311 -1.44559,-0.425646 -3.68165,-0.03381 -5.82274,-0.235676 -2.06332,-0.194533 -4.10758,0.106122 -5.54387,0.05061 -2.32087,-0.0897 -1.78996,-0.143424 -4.07106,0.314729 -2.34244,0.470477 -5.65981,1.748382 -7.93212,2.531616 -2.051687,0.707192 -3.115534,0.605898 -5.014644,1.721283 -1.538349,0.903512 -3.14097,0.902649 -4.401168,2.24053 -0.97842,1.038745 -2.393657,3.654427 -2.393657,3.654427 l 0.120253,2.452187 0.113843,-2.462434 z"
         style="opacity:0.40900005;fill:#87aade;fill-opacity:1;stroke:none;stroke-width:0.51489574px;stroke-linecap:butt;stroke-linejoin:miter;stroke-opacity:1" />
      <path
         inkscape:connector-curvature="0"
         d="m 182.52457,124.52559 c -0.0695,-0.3099 -0.16255,-0.6133 -0.2174,-0.92623 -0.009,-0.15784 -0.0409,-0.26735 -0.13791,-0.39035 -0.10173,-0.0928 -0.20138,-0.1608 -0.30329,-0.27163 -0.0639,-0.0782 -0.18811,-0.0854 -0.28667,-0.0968 -0.80498,0.0833 2.12959,-1.36142 1.43659,-0.79806 -0.0964,0.0714 -0.11445,0.17342 -0.1306,0.28497 -0.0144,0.0987 -0.0114,0.19917 -0.009,0.29866 -0.001,0.0738 -9.1e-4,0.0362 -8.8e-4,0.11315 0,0 -1.71817,0.86749 -1.71817,0.86749 v 0 c -8.1e-4,-0.0756 0,-0.0389 -0.002,-0.11 1.3e-4,-0.10724 0.002,-0.21453 -8.4e-4,-0.32174 0.0126,-0.13056 0.0177,-0.28523 0.0823,-0.39704 0.4368,-0.57843 1.20515,-1.23033 1.92861,-1.02844 0.13034,0.0386 0.26323,0.0864 0.34787,0.19863 0.0984,0.10527 0.23054,0.16681 0.31219,0.28751 0.11217,0.1513 0.18472,0.2828 0.17869,0.47504 0.0432,0.30932 0.12482,0.61104 0.20761,0.91203 0,0 -1.68712,0.90284 -1.68712,0.90284 z"
         id="path5893"
         style="opacity:0.40900005;fill:#5f8dd3;fill-opacity:1;fill-rule:nonzero;stroke:none;stroke-width:0.05505949;stroke-linecap:round;stroke-linejoin:round;stroke-miterlimit:4;stroke-dasharray:none;stroke-dashoffset:0;stroke-opacity:1;paint-order:normal" />
      <path
         inkscape:connector-curvature="0"
         d="m 88.025804,140.46186 c -0.188899,0.43417 -0.350212,0.88634 -0.524167,1.33048 -0.300231,0.80501 -0.421087,1.61228 -0.467698,2.49718 0,0 -0.850898,-0.37054 -0.850898,-0.37054 v 0 c 0.03609,-0.91862 0.144392,-1.71827 0.451111,-2.55533 0.170268,-0.44336 0.327416,-0.89423 0.499228,-1.33668 0,0 0.892424,0.43489 0.892424,0.43489 z"
         id="path5952"
         style="opacity:0.23600003;fill:#5f8dd3;fill-opacity:1;fill-rule:nonzero;stroke:none;stroke-width:0.03125772;stroke-linecap:round;stroke-linejoin:round;stroke-miterlimit:4;stroke-dasharray:none;stroke-dashoffset:0;stroke-opacity:1;paint-order:normal" />
      <path
         inkscape:connector-curvature="0"
         id="path5958"
         d="m 157.16214,108.78259 23.41313,-0.69575 -0.72106,-4.41826 -22.93412,0.73669 z"
         style="fill:#000000;fill-opacity:1;stroke:#000000;stroke-width:0.89163059px;stroke-linecap:butt;stroke-linejoin:miter;stroke-opacity:1" />
      <path
         inkscape:connector-curvature="0"
         id="path5960"
         d="m 78.795148,109.81946 -4.58467,-1.89964 -0.509408,-5.48786 5.348782,1.89965 z"
         style="fill:#000000;fill-opacity:1;stroke:#000000;stroke-width:0.92745405px;stroke-linecap:butt;stroke-linejoin:miter;stroke-opacity:1" />
      <path
         sodipodi:nodetypes="zzzzsczz"
         inkscape:connector-curvature="0"
         id="path4646"
         d="m 81.436324,75.670695 c -1.304882,0.604977 -12.444879,6.976723 -13.760562,11.136844 -1.315682,4.160119 -0.886721,14.141101 1.070249,16.722261 1.95697,2.58117 3.285918,0.65324 4.280994,0 0.995075,-0.65324 8.795677,-5.426384 12.272166,-8.993692 2.840769,-2.914981 6.778257,-9.89627 6.778257,-9.89627 0,0 -3.432713,-16.705633 -6.527703,-17.058364 -3.094992,-0.352728 -2.808517,7.484244 -4.113401,8.089221 z"
         style="fill:#000000;fill-opacity:1;stroke:#000000;stroke-width:1.02983558px;stroke-linecap:butt;stroke-linejoin:miter;stroke-opacity:1" />
      <path
         sodipodi:nodetypes="czzzzzzzzccccc"
         inkscape:connector-curvature="0"
         id="path4703"
         d="m 112.25,144.25 c 0,0 -0.22783,1.30875 0.25,2.25 0.47783,0.94125 1.40906,2.09425 3,2.75 1.59094,0.65575 3.62459,1.20751 5.75,1.25 2.12541,0.0425 5.04123,-1.0466 7,-1 1.95877,0.0466 3.66187,0.0273 5.25,0.25 1.58813,0.22273 2.02574,2.76957 3.5,3.5 1.47426,0.73043 3.08055,2.14154 5,1 1.91945,-1.14154 -0.062,-5.92618 -1.5,-7.75 -1.43804,-1.82382 -5.5,-2.5 -5.5,-2.5 h -7 l -4.75,-0.25 -6.5,-0.25 z"
         style="fill:#000000;fill-opacity:1;stroke:#000000;stroke-width:1px;stroke-linecap:butt;stroke-linejoin:miter;stroke-opacity:1" />
      <path
         sodipodi:nodetypes="zcczzzzzzzzzzz"
         inkscape:connector-curvature="0"
         id="path4705"
         d="m 111.53048,144.35618 c -1.47653,-1.14279 -9.27244,-0.65395 -9.27244,-0.65395 h -6.766376 c 0,0 -4.966982,0.62601 -6.766376,1.96185 -1.799393,1.33583 -3.244838,4.0197 -3.257884,5.44956 -0.01304,1.42986 0.275263,1.84997 1.253032,2.17983 0.97777,0.32986 2.57433,4.43779 3.507885,3.91008 0.933555,-0.52771 2.488601,-4.30796 3.505458,-4.71184 1.016858,-0.40388 0.16638,-0.97618 1.758491,-0.96798 1.592112,0.008 4.38316,-1.13211 6.26456,-1.06404 1.88139,0.0681 3.81425,0.31766 5.26273,0 1.44849,-0.31765 2.40741,-0.83809 3.25789,-1.52587 0.85048,-0.68779 1.57603,-1.56798 1.75424,-2.39781 0.17821,-0.82984 0.97532,-1.03704 -0.50121,-2.17983 z"
         style="fill:#000000;fill-opacity:1;stroke:#000000;stroke-width:0.93490404px;stroke-linecap:butt;stroke-linejoin:miter;stroke-opacity:1" />
      <path
         inkscape:transform-center-y="14"
         inkscape:transform-center-x="23.5"
         sodipodi:nodetypes="czczccc"
         inkscape:connector-curvature="0"
         id="path4707"
         d="m 97.23146,66.323484 c 0,0 1.48297,-7.027487 3.20127,-10.870163 1.71829,-3.842676 7.33623,-11.46308 7.33623,-11.46308 0,0 -3.38383,7.998617 -4.8019,11.66072 -1.41807,3.662102 -3.73481,10.277244 -3.73481,10.277244 l -1.33386,0.592918 z"
         style="opacity:0.58699999;fill:#87aade;fill-opacity:1;stroke:none;stroke-width:0.64945912px;stroke-linecap:butt;stroke-linejoin:miter;stroke-opacity:1" />
      <path
         style="opacity:0.58699999;fill:#87aade;fill-opacity:1;stroke:none;stroke-width:0.64945912px;stroke-linecap:butt;stroke-linejoin:miter;stroke-opacity:1"
         d="m 163.76896,69.323484 c 0,0 -1.48297,-7.027487 -3.20127,-10.870163 -1.71829,-3.842676 -7.33623,-11.46308 -7.33623,-11.46308 0,0 3.38383,7.998617 4.8019,11.66072 1.41807,3.662102 3.73481,10.277244 3.73481,10.277244 l 1.33386,0.592918 z"
         id="path4709"
         inkscape:connector-curvature="0"
         sodipodi:nodetypes="czczccc"
         inkscape:transform-center-x="-23.5"
         inkscape:transform-center-y="14" />
      <path
         inkscape:transform-center-y="11.825207"
         inkscape:transform-center-x="15.694543"
         sodipodi:nodetypes="czczccc"
         inkscape:connector-curvature="0"
         id="path4711"
         d="m 85.23146,72.354186 c 0,0 0.990406,-5.935821 2.137977,-9.181567 1.147565,-3.245745 4.899523,-9.682378 4.899523,-9.682378 0,0 -2.259901,6.756093 -3.206963,9.849316 -0.947062,3.093223 -2.494304,8.680753 -2.494304,8.680753 l -0.890822,0.500813 z"
         style="opacity:0.58699999;fill:#87aade;fill-opacity:1;stroke:none;stroke-width:0.48778966px;stroke-linecap:butt;stroke-linejoin:miter;stroke-opacity:1" />
      <path
         style="opacity:0.58699999;fill:#87aade;fill-opacity:1;stroke:none;stroke-width:0.64945912px;stroke-linecap:butt;stroke-linejoin:miter;stroke-opacity:1"
         d="m 178.51896,80.323484 c 0,0 -1.48297,-7.027487 -3.20127,-10.870163 -1.71829,-3.842676 -7.33623,-11.46308 -7.33623,-11.46308 0,0 3.38383,7.998617 4.8019,11.66072 1.41807,3.662102 3.73481,10.277244 3.73481,10.277244 l 1.33386,0.592918 z"
         id="path4713"
         inkscape:connector-curvature="0"
         sodipodi:nodetypes="czczccc"
         inkscape:transform-center-x="-23.5"
         inkscape:transform-center-y="14" />
      <path
         sodipodi:nodetypes="czczcc"
         inkscape:connector-curvature="0"
         id="path4715"
         d="m 159.75,79 c 0,0 16.42564,7.102162 20.5,10.25 4.07436,3.147838 5.25,6 5.25,6 0,0 -13.50313,-7.160652 -18.75,-10 -5.24687,-2.839348 -12.75,-7 -12.75,-7 z"
         style="opacity:0.456;fill:#87aade;stroke:#000000;stroke-width:1px;stroke-linecap:butt;stroke-linejoin:miter;stroke-opacity:1" />
      <path
         inkscape:transform-center-y="17.587307"
         inkscape:transform-center-x="-10.523886"
         sodipodi:nodetypes="cssczccc"
         inkscape:connector-curvature="0"
         id="path4717"
         d="m 124.5325,136.00368 c 0,0 -2.18113,-3.04685 -3.36192,-6.48666 -0.72402,-2.10918 -0.63069,-4.58673 -0.72681,-5.95071 -0.25287,-3.58844 -0.46587,-10.79373 -0.46587,-10.79373 0,0 -2.5061,11.05716 -2.3854,14.41849 0.1207,3.36134 3.13131,5.72886 3.13131,5.72886 l 0.62479,0.83848 z"
         style="opacity:0.58699999;fill:#afc6e9;fill-opacity:1;stroke:none;stroke-width:0.45661104px;stroke-linecap:butt;stroke-linejoin:miter;stroke-opacity:1" />
      <path
         style="opacity:0.58699999;fill:#afc6e9;fill-opacity:1;stroke:none;stroke-width:0.45661104px;stroke-linecap:butt;stroke-linejoin:miter;stroke-opacity:1"
         d="m 106.998,92.797427 c 0,0 6.24631,0.03308 8.43166,0.266252 1.8758,0.200148 4.06581,0.385876 5.7274,0.384966 3.59734,-0.002 11.15334,-1.923379 11.15334,-1.923379 0,0 -6.73815,-0.573598 -10.09972,-0.687635 -3.36157,-0.114038 -9.80059,0.776511 -9.80059,0.776511 -0.92465,0.963615 -4.48744,0.21967 -5.41209,1.183285 z"
         id="path4719"
         inkscape:connector-curvature="0"
         sodipodi:nodetypes="cssczcc"
         inkscape:transform-center-x="18.346191"
         inkscape:transform-center-y="9.2046197" />
      <path
         inkscape:transform-center-y="8.0730856"
         inkscape:transform-center-x="10.499247"
         sodipodi:nodetypes="czczccc"
         inkscape:connector-curvature="0"
         id="path4721"
         d="m 74.855802,81.532641 c 0,0 3.791966,-0.304032 5.995481,-0.799936 2.203493,-0.495924 6.675831,-2.704564 6.675831,-2.704564 0,0 -4.174328,0.577479 -6.242826,0.970345 -2.068505,0.392873 -5.940473,1.820442 -5.940473,1.820442 l -0.493157,0.464774 z"
         style="opacity:0.58699999;fill:#afc6e9;fill-opacity:1;stroke:none;stroke-width:0.28297484px;stroke-linecap:butt;stroke-linejoin:miter;stroke-opacity:1" />
      <rect
         style="opacity:0.43800001;fill:#5f8dd3;fill-opacity:1;fill-rule:nonzero;stroke:none;stroke-width:0.95244092;stroke-linecap:round;stroke-linejoin:round;stroke-miterlimit:4;stroke-dasharray:none;stroke-dashoffset:0;stroke-opacity:0.44982701;paint-order:normal"
         id="rect4737"
         width="17.324116"
         height="1.2374369"
         x="103.94469"
         y="113.518" />
      <rect
         y="112.17313"
         x="104.09693"
         height="2.0822871"
         width="18.080576"
         id="rect5072"
         style="fill:#1a1a1a;fill-opacity:1;fill-rule:nonzero;stroke:url(#linearGradient5280);stroke-width:0.45759878;stroke-linecap:butt;stroke-linejoin:round;stroke-miterlimit:4;stroke-dasharray:none;stroke-dashoffset:0;stroke-opacity:1;paint-order:normal" />
      <path
         style="opacity:0.58699999;fill:#87aade;fill-opacity:1;stroke:none;stroke-width:0.64945912px;stroke-linecap:butt;stroke-linejoin:miter;stroke-opacity:1"
         d="m 129.57587,64.700577 c 0,0 -0.74812,-7.143185 -0.29369,-11.327944 0.45441,-4.184757 3.45903,-13.162734 3.45903,-13.162734 0,0 0.23762,9.151414 0.0134,13.072084 -0.10884,1.903313 -1.20539,4.03397 -1.27592,6.237233 -0.0748,2.335282 -0.1203,4.190418 -0.1203,4.190418 l -1.08714,0.974091 z"
         id="path4731"
         inkscape:connector-curvature="0"
         sodipodi:nodetypes="czcssccc"
         inkscape:transform-center-x="18.311748"
         inkscape:transform-center-y="20.449556" />
      <path
         sodipodi:nodetypes="cssscszcc"
         inkscape:connector-curvature="0"
         id="path4733"
         d="m 115.21506,142.76565 c 0,0 1.89266,-1.06979 2.91682,-1.41422 1.13915,-0.3831 2.39017,-0.34297 3.53553,-0.7071 0.55307,-0.17583 1.09516,-0.40551 1.59099,-0.70711 0.48353,-0.29412 1.32583,-1.06066 1.32583,-1.06066 0,0 -0.41755,2.60552 -1.41422,3.27037 -0.99667,0.66485 -3.22546,0.31204 -4.41941,0.53033 -1.19395,0.21829 -3.53554,0.0884 -3.53554,0.0884 z"
         style="fill:#afc6e9;fill-opacity:1;stroke:none;stroke-width:1px;stroke-linecap:butt;stroke-linejoin:miter;stroke-opacity:1" />
      <path
         sodipodi:nodetypes="czzzzzczzzzc"
         inkscape:connector-curvature="0"
         id="path4771"
         d="m 105.03401,135.78921 c 0,0 -1.189,0.80211 -1.625,1.25 -0.436,0.44789 -0.76419,0.64985 -1,1.375 -0.23581,0.72515 -0.35088,2.11846 0,2.875 0.35088,0.75654 0.98766,1.03164 1.625,1.375 0.63734,0.34336 1.43972,0.66577 2.125,0.625 0.68528,-0.0408 1.75,-0.75 1.75,-0.75 0,0 -0.47782,-0.14951 -1.125,-0.375 -0.64718,-0.22549 -2.18008,-0.41447 -2.75,-1 -0.56992,-0.58553 -0.69275,-1.16638 -0.625,-1.875 0.0678,-0.70862 0.86333,-1.4094 1.125,-2 0.26167,-0.5906 0.5,-1.5 0.5,-1.5 z"
         style="opacity:0.58300003;fill:#87aade;fill-opacity:1;stroke:none;stroke-width:1px;stroke-linecap:butt;stroke-linejoin:miter;stroke-opacity:1" />
      <path
         sodipodi:nodetypes="czczc"
         inkscape:connector-curvature="0"
         id="path4804"
         d="m 106.625,134.25 c 0,0 1.10394,-0.96629 1.375,-1.75 0.27106,-0.78371 0,-2.75 0,-2.75 0,0 -0.39432,1.62478 -0.625,2.375 -0.23068,0.75022 -0.75,2.125 -0.75,2.125 z"
         style="fill:#afc6e9;fill-opacity:1;stroke:none;stroke-width:1px;stroke-linecap:butt;stroke-linejoin:miter;stroke-opacity:1" />
      <path
         sodipodi:nodetypes="zzcz"
         inkscape:connector-curvature="0"
         id="path4806"
         d="m 129.5895,121.09202 c 2.72756,1.1749 15.55964,1.20898 18.20526,0 2.6456,-1.20897 -9.58172,-3.15462 -9.58172,-3.15462 0,0 -11.35111,1.97973 -8.62354,3.15462 z"
         style="opacity:0.49000005;fill:#87aade;fill-opacity:1;stroke:none;stroke-width:0.87616384px;stroke-linecap:butt;stroke-linejoin:miter;stroke-opacity:1" />
      <path
         style="opacity:0.49000005;fill:#87aade;fill-opacity:1;stroke:none;stroke-width:0.72629327px;stroke-linecap:butt;stroke-linejoin:miter;stroke-opacity:1"
         d="m 86.404802,122.70141 c 2.397711,0.9184 13.677978,0.94504 16.003658,0 2.32566,-0.94504 -8.422981,-2.46592 -8.422981,-2.46592 0,0 -9.978396,1.54753 -7.580677,2.46592 z"
         id="path4808"
         inkscape:connector-curvature="0"
         sodipodi:nodetypes="zzcz" />
      <rect
         transform="matrix(1,0,-0.04978579,0.99875992,0,0)"
         style="opacity:0.55100002;fill:#f9f9f9;fill-opacity:1;fill-rule:nonzero;stroke:url(#linearGradient1001);stroke-width:0.55971724;stroke-linecap:round;stroke-linejoin:round;stroke-miterlimit:4;stroke-dasharray:none;stroke-dashoffset:0;stroke-opacity:1;paint-order:normal"
         id="rect5070"
         width="25.105774"
         height="18.504951"
         x="85.259262"
         y="103.83552" />
      <rect
         transform="matrix(1,0,-0.01343102,0.9999098,0,0)"
         y="102.50523"
         x="123.25924"
         height="18.421524"
         width="34.715046"
         id="rect5068"
         style="opacity:0.55500034;fill:#f9f9f9;fill-opacity:1;fill-rule:nonzero;stroke:url(#linearGradient5773);stroke-width:0.68412536;stroke-linecap:round;stroke-linejoin:round;stroke-miterlimit:4;stroke-dasharray:none;stroke-dashoffset:0;stroke-opacity:1;paint-order:normal" />
    </g>
  </g>
</svg>
