<?xml version="1.0" standalone="no"?>
<!DOCTYPE svg PUBLIC "-//W3C//DTD SVG 20010904//EN"
 "http://www.w3.org/TR/2001/REC-SVG-20010904/DTD/svg10.dtd">
<svg version="1.0" xmlns="http://www.w3.org/2000/svg"
 width="588.000000pt" height="588.000000pt" viewBox="0 0 588.000000 588.000000"
 preserveAspectRatio="xMidYMid meet">
<metadata>
Created by potrace 1.11, written by Peter Selinger 2001-2013
</metadata>
<g transform="translate(0.000000,588.000000) scale(0.100000,-0.100000)"
fill="#000000" stroke="none">
<path d="M2753 5850 c-276 -21 -510 -67 -683 -135 -156 -62 -410 -195 -520
-273 -123 -88 -540 -525 -540 -567 0 -8 -53 -128 -118 -267 -65 -139 -140
-303 -166 -365 -34 -79 -56 -117 -75 -129 -52 -34 -141 -116 -175 -162 -58
-80 -71 -141 -71 -347 0 -258 30 -386 105 -449 34 -28 87 -34 136 -16 15 6 29
9 31 6 2 -2 7 -32 11 -67 l7 -64 95 -41 c52 -24 101 -43 108 -43 7 -1 12 12
12 32 0 17 5 39 10 47 12 19 12 -17 -3 -319 -9 -173 -9 -235 -1 -238 6 -2 33
-2 60 0 l49 3 -54 2 -54 2 7 178 c4 97 12 227 17 287 6 61 10 144 9 185 l-1
75 496 0 497 0 -7 -112 -7 -113 67 0 c60 0 69 3 96 29 16 16 29 39 29 51 0 86
-180 221 -342 257 -48 11 -125 16 -223 17 -164 1 -197 -6 -387 -80 -70 -27
-102 -34 -158 -34 l-70 0 0 -52 c0 -29 -5 -60 -10 -68 -7 -11 -10 3 -10 47 0
60 -1 62 -30 68 -16 4 -30 10 -30 13 0 4 133 53 295 110 162 56 386 139 497
183 248 99 367 138 523 175 l120 29 345 -1 c263 0 375 -4 472 -17 180 -24 450
-81 555 -118 84 -29 608 -280 703 -337 l45 -27 -50 -6 c-27 -4 -97 -8 -155 -8
l-106 -1 -64 63 c-89 85 -264 167 -490 229 -121 32 -366 32 -520 -1 -291 -62
-485 -144 -525 -222 -25 -48 -19 -94 16 -123 17 -14 41 -29 55 -32 24 -6 24
-8 24 -126 l0 -120 -337 3 -338 3 0 -49 0 -50 338 4 337 4 0 -137 0 -136 78 1
77 2 -74 9 -74 10 7 237 c3 130 9 286 12 347 l6 111 157 5 c124 4 164 8 191
22 99 51 259 59 545 27 181 -21 395 -36 433 -32 13 1 29 -4 35 -13 7 -8 28
-19 47 -24 l35 -8 -40 -7 -40 -6 3 -98 c2 -54 7 -101 10 -105 4 -3 151 -1 326
4 l319 11 19 -24 c34 -44 33 -66 -6 -145 -79 -158 -168 -254 -461 -496 -156
-129 -289 -262 -328 -329 -14 -24 -46 -103 -70 -175 -79 -230 -116 -281 -230
-316 -97 -29 -177 -23 -237 20 -97 69 -131 75 -475 83 -170 4 -344 10 -385 13
-51 3 -107 -1 -173 -13 -87 -16 -105 -16 -150 -4 -40 11 -120 13 -357 10 -270
-3 -313 -6 -378 -24 -39 -12 -91 -31 -113 -43 -23 -11 -47 -19 -55 -16 -7 3
-116 123 -244 268 -127 145 -236 263 -243 263 -9 0 -11 -66 -9 -270 3 -225 0
-304 -18 -475 -15 -138 -20 -231 -16 -284 26 -315 321 -675 702 -856 354 -168
835 -219 1334 -139 541 85 1173 375 1520 696 224 207 431 536 544 862 64 185
119 406 113 456 -4 34 19 664 26 718 2 15 10 12 52 -18 64 -46 141 -69 235
-69 119 -1 166 36 191 152 25 111 11 443 -23 550 -5 18 -32 59 -60 90 -66 75
-71 85 -118 258 -159 577 -284 942 -383 1115 -105 183 -410 504 -649 681 -248
184 -454 259 -827 303 -159 19 -472 26 -628 15z m-487 -4431 c39 -41 90 -66
181 -90 97 -24 172 -24 303 2 86 17 125 20 213 14 60 -3 115 -9 122 -12 8 -3
30 -27 50 -54 31 -43 74 -81 130 -114 15 -9 12 -17 -31 -68 -59 -70 -120 -111
-234 -160 -84 -35 -381 -137 -402 -137 -5 0 23 37 63 82 l74 81 -90 -8 c-50
-4 -202 -9 -340 -11 -137 -1 -262 -6 -277 -11 l-26 -8 90 -113 c49 -63 88
-115 86 -117 -5 -6 -218 89 -378 168 -183 90 -308 173 -344 228 -25 38 -27 44
-14 68 24 48 97 111 128 111 16 0 66 9 112 20 61 15 118 20 214 20 165 0 208
13 278 85 28 28 54 53 57 53 3 1 18 -12 35 -29z"/>
<path d="M2910 1316 c-104 -56 -448 -93 -942 -103 l-318 -6 0 -34 0 -33 58 0
c169 1 647 22 782 35 248 23 431 62 484 101 19 13 19 14 1 34 -21 23 -31 24
-65 6z"/>
<path d="M1920 2681 c0 -12 5 -21 10 -21 6 0 10 6 10 14 0 8 -4 18 -10 21 -5
3 -10 -3 -10 -14z"/>
<path d="M2938 2503 c12 -2 30 -2 40 0 9 3 -1 5 -23 4 -22 0 -30 -2 -17 -4z"/>
</g>
</svg>
