<svg xmlns="http://www.w3.org/2000/svg" width="620.891" height="386.908" viewBox="0 0 164.278 102.369"><g stroke="#000" stroke-width=".132"><path d="M67.405 16.077l-33.227.945-2.313.136v.544l4.217.817.135 2.153-.067 1.927-3.967-1.904-.227.408.454.408 3.672 1.632 22.262-.498 21.673-.5.318-2.493-.318-1.859-1.723-.317z" fill="#f2f2f2"/><path d="M32.047 21.284l-2.131.136-.09.408 9.77 2.177s.176 1.403.195 2.108c.023.885-.104 2.653-.104 2.653l-9.363-3.083h-.454l.046.453 9.521 3.514 19.338-1.224 21.605-1.36.453-1.928s-.017-1.497-.18-2.221c-.076-.332-.364-.952-.364-.952l-44.298 1.224z" fill="#1a1a1a"/><path d="M29.69 25.91l-.545.453.136.453 7.617 3.4s.17 2.037.192 3.057c.024 1.052-.056 3.155-.056 3.155l-7.254-4.897-.59-.045v.862l7.708 4.942 22.761-1.542 21.628-1.768s.377-1.318.453-1.995c.105-.931.127-1.883 0-2.811-.091-.669-.544-1.95-.544-1.95l-.59.272-.816-.408-40.398 2.494z" fill="#666"/><path d="M32.376 17.839l.079 2.901m-2.04 1.259l.158 1.099v1.61l-.102.986m-.737 1.394s.057 1.213.136 1.28c.08.069.023 3.254.023 3.254" fill="none"/></g><path d="M32.395 36.746l.893.405-.025.416-1.186-.66z" stroke="#000" stroke-width=".189"/><path d="M36.611 39.307l-8.583-4.202-26.864 2.482-.95.069s-.154.494-.117.742c.037.252.334.688.334.688l5.198 3.995" stroke="#000" stroke-width=".181" stroke-linejoin="bevel"/><path d="M118.087 59.121L135.597.728l.191-.635-.755.014-56.307.581-9.883 35.315L6.769 42.35 4.9 43.954l.204.193.6.563L33.56 70.912s.615.642 1.004.838c.779.392 1.672.576 2.542.614.367.015.904-.064 1.364-.15.498-.094 79.146-10.875 79.146-10.875l.47-2.218" fill="#333" stroke="#000" stroke-width=".185" stroke-linecap="round" stroke-linejoin="round"/><path d="M125.347 61.923l-.017-2.102c.057-.104-.658-1.12-1.134-.945-.138.052-1.009.128-1.05.141L39.72 70.216s-.422 2.664-.19 3.968c.313 1.751.72 3.767 2.08 4.914.84.71 3.212.756 3.212.756" fill="#f2f2f2" stroke="#000" stroke-width=".185"/><path d="M40.853 73.617L125.708 61.9s1.19-.032 1.748.138c1.02.31 1.89.991 2.788 1.563 2.551 1.624 7.37 5.292 7.37 5.292s7.27 4.544 11.07 6.513c4.475 2.319 9.693 3.274 13.778 6.224.486.35.947.788 1.219 1.323.334.656.393 1.431.435 2.167.033.586.193 1.28-.151 1.754-.22.302-1.032.437-1.032.437L73.831 102s-3.279.381-4.914.25c-1.38-.11-2.815-.27-4.063-.871-10.63-6.763-17.124-17.775-23.812-25.87z" fill="#f2f2f2" stroke="#000" stroke-width=".185"/><path d="M17.924 54.889l3.118 2.905-.52.71-3.803-3.52z" stroke="#000" stroke-width=".185"/><path d="M41.006 73.771c.524 0 3.856 3.542 7.284 8.097 6.054 8.046 12.574 14.276 16.564 16.507 1.09.61 2.422.755 3.672.756 6.706-.006 14.323-1.632 20.519-2.457l26.458-3.59 47.374-7.461c.596-.173 1.444-.11 1.149-1.115" fill="#f2f2f2" stroke="#000" stroke-width=".185"/><path d="M130.395 2.86L114.18 53.774c-14.426-7.182-28.986-12.827-43.412-20.008l8.26-30.944z" stroke="#000" stroke-width=".185" stroke-linecap="round" stroke-linejoin="round"/><path d="M114.558 57.364l3.429 1.768L39.34 69.65c-1.575.312-3.15.128-4.725-.567L20.631 56.23 6.126 43.025" fill="none"/><path d="M101.107 56.864l-23.76 3.511-1.82.269-7.66-4.992-2.478.79 1.922 1.49 2.89-.656 2.29 1.49-2.935.46 2.102 1.635-2.93.567-29.67-18.805 27.78-2.834z" stroke="#000" stroke-width=".185" stroke-linecap="round" stroke-linejoin="round"/><path d="M113.235 64.735l-47.436 7.937s-.22.782-.283 1.182c-.113.697.472 1.653.472 1.653l47.625-6.236s.876-.742.874-1.323c-.002-.692.062-1.36-.118-1.961-.181-.603-1.134-1.252-1.134-1.252z" stroke="#000" stroke-width=".185"/><path d="M95.223 67.913s.63.956.735 1.504c.134.702-.167 2.138-.167 2.138l-1.67.234s.28-1.41.167-2.105c-.097-.586-.702-1.637-.702-1.637z" fill="#1a1a1a" stroke="#000" stroke-width=".185"/><path d="M121.665 64.414h1.629c.059 0 .12.019.175 0 .018-.006 0-.039 0-.058 0-.02.014-.045 0-.058-.014-.014-.038 0-.058 0h-1.222c-.059 0-.118-.013-.175 0-.12.026-.303.003-.349.116-.06.149.086.309.117.466.009.038 0 .077 0 .116v.175c0 .019-.018.05 0 .058.034.017.077 0 .116 0h1.164c.039 0 .358.012.407 0 .042-.01.075-.045.116-.058.02-.007.039 0 .059 0 .038 0 .078.006.116 0 .215-.033.427-.078.64-.117.214-.039.426-.082.64-.116.155-.025.313-.024.466-.058.026-.007.058-.031.058-.059 0-.02-.038 0-.058 0h-.29c-.175 0-.366-.073-.525 0-.127.059-.145.24-.232.35-.069.085-.166.146-.233.232-.465.598.162 0-.466.524-.063.053-.116.116-.174.175-.02.019-.047.033-.059.058-.01.017-.02.054 0 .058.095.019.194 0 .291 0h1.862c.039 0 .082-.017.117 0 .017.009-.014.044 0 .058.014.014.05-.017.058 0 .018.035 0 .078 0 .117 0 .122.011.063-.116.232-.017.022-.047.034-.059.059-.01.017 0 .038 0 .058v.465c0 .04.022.084 0 .117-.023.036-.086.027-.116.058-.014.014 0 .039 0 .058v.233c0 .064-.003.812 0 .815.014.013.038 0 .058 0 .163 0 .117.047.117-.175 0-.039.027-.089 0-.116-.225-.225-.186-.061-.407-.117-.027-.007-.036-.043-.059-.058-.023-.015-.228-.11-.233-.116-.021-.033.027-.09 0-.117-.043-.043-.123-.024-.174-.058-.017-.01 0-.039 0-.058 0-.02-.019-.052 0-.058.055-.019.116 0 .174 0h.466c.032 0 .264.009.29 0 .027-.01.036-.043.06-.059.035-.024.078-.035.116-.058.06-.036.11-.09.174-.116a.148.148 0 0 1 .117 0c.017.009 0 .039 0 .058v.233c0 .02-.014.044 0 .058.014.014.038 0 .058 0h.29c.02 0 .046-.014.059 0 .014.014 0 .039 0 .058v.524c0 .02-.018.05 0 .058.034.018.077 0 .116 0h.466c.02 0 .058-.02.058 0s-.038 0-.058 0h-1.455c-.077 0-.157-.017-.233 0-.102.023-.191.084-.29.117-.02.006-.078 0-.06 0h2.62c.02 0 .045-.014.058 0 .014.013 0 .038 0 .058v.524c0 .058-.017.118 0 .174.125.438.116.104.116.291 0 .039.027.09 0 .116-.012.013-.272 0-.29 0h.058c.02 0 .058-.019.058 0 0 .02-.038 0-.058 0h-.99 2.386c.02 0 .045-.013.058 0 .014.014.02.059 0 .059s-.02-.059 0-.059 0 .04 0 .059v1.513c0 .02-.014.044 0 .058.014.014.039 0 .059 0h.465c.039 0 .082.017.117 0 .017-.009-.01-.04 0-.058.012-.025.046-.034.058-.059.01-.017 0-.148 0-.174v-.407c0-.02-.02-.059 0-.059s0 .04 0 .059v.232c0 .02.02.055 0 .058-.095.02-.194 0-.291 0H128.3h1.688c.02 0 .045.014.058 0 .03-.03.027-.085.059-.116.014-.014.038 0 .058 0h.174c.02 0 .045-.014.059 0 .014.014.014.045 0 .058-.014.014-.038 0-.059 0h-.116c-.355 0 .022-.011-.465.059-.038.005-.078 0-.117 0-.02 0-.04-.01-.058 0-.063.03-.112.085-.175.116-.087.043-.103-.099-.174.116a1.27 1.27 0 0 0 0 .175c.055.018.116 0 .174 0h.582c.008 0 .4.005.407 0 .19-.126.034-.108.233-.175.033-.01.137 0 .175 0h1.629c.02 0 .059-.02.059 0s-.04-.006-.059 0c-.04.014-.076.042-.116.059-.057.022-.122.026-.175.058-.047.028-.071.084-.116.116-.612.367-.03-.014-.466.35-.168.14-.419.222-.582.348-.055.043-.066.126-.116.175-.03.03-.092.022-.116.058-.547.82.156-.085-.175.466-.028.047-.092.067-.116.116-.036.072-.033.157-.059.233-.014.041-.048.074-.058.116-.01.038 0 .078 0 .117v.116c0 .039-.018.082 0 .116.01.018.04.008.058 0 .08-.032.176-.05.233-.116.086-.098.119-.232.175-.35.118-.25.23-.504.349-.756.036-.078.07-.159.116-.232.052-.083.112-.16.175-.233.097-.114.191-.233.349-.233" fill="none" stroke="#000" stroke-width=".046"/><path d="M133.044 74.453h3.193c.034 0 .084-.028.103 0 .029.043.013.105 0 .155-.008.023-.037.032-.052.051-.037.05-.065.105-.103.155-.065.088-.154.16-.206.257-.087.163-.137.344-.206.515-.034.086-.054.18-.103.258-.122.195-.12.115-.257.206-.02.014-.03.041-.052.052-.015.01-.033 0-.052 0-.033 0-.07-.011-.103 0-.022.01-.03.04-.051.051-.016.01-.034 0-.052 0-.172.086-.362.143-.515.258-.092.069-.049.257-.206.257-.024 0 .036-.032.051-.051.819-.982-.359.393.413-.464.268-.298.257-.178.257-.36v-.206c0-.018-.017-.052 0-.052.018 0 0 .034 0 .052v.257c0 .32-.023.496.103.824.036.094.103.172.155.258.135.226.182.35.412.515.028.02.068 0 .103 0h1.339c.018 0 .052-.017.052 0 0 .018-.069 0-.052 0h.155c.068 0 .14.02.206 0 .11-.033.209-.097.309-.155.092-.052.02-.07.103-.154.043-.044.103-.069.154-.103.006-.004.192-.17.258-.103.024.024 0 .069 0 .103v1.082c0 .017-.012.04 0 .051.014.014.204-.01.206 0 .017.085 0 .172 0 .258v.36c0 .018-.016.047 0 .052.049.017.103 0 .154 0h2.627c.103 0 .208-.017.31 0 .017.004 0 .034 0 .052v1.03c0 .018-.016.044 0 .052.03.016.068 0 .103 0 .068 0 .14.022.206 0 .095-.032.163-.12.257-.155.4-.066.212-.013.567-.154" fill="none" stroke="#000" stroke-width=".041"/><path d="M115.335 69.717c.09 0 .196-.053.267 0 .054.04 0 .134 0 .2v.535c0 .016-.002.198 0 .2.016.016.045 0 .067 0h.601c.023 0 .052-.015.067 0 .002.002 0 .31 0 .335 0 .022-.018.054 0 .067.425.303.588.334 1.07.334h.534c.016 0 .197.009.2 0 .043-.106.051-.222.067-.334.006-.045.02-.094 0-.134-.01-.02-.044 0-.067 0h-.735c-.066 0-.14-.03-.2 0-.02.01-.02.057 0 .067.082.04.188.02.267.067.108.064.067.515.067.6v.602c0 .035.009.25 0 .268-.014.028-.053.038-.067.066-.01.02.016.051 0 .067-.033.034-.167-.033-.2 0-.016.016-.016.051 0 .067.015.016.044 0 .066 0h.602c.022 0 .05-.016.067 0 .015.016 0 .045 0 .067v.2c0 .023-.02.057 0 .067.04.02.089 0 .133 0h.334c.023 0 .057-.02.067 0 .028.055-.027.413 0 .468.01.02.045 0 .067 0h.401c.067 0 .135.016.2 0 .03-.008.039-.053.067-.067.02-.01.067-.022.067 0s-.115.096-.134.134c-.031.063-.067.13-.067.2 0 .022.045 0 .067 0h.067c.045 0 .109-.037.134 0 .01.016 0 .34 0 .401m-8.686-2.74h2.538c.023 0 .067-.022.067 0 0 .023-.046-.008-.066 0-.093.037-.177.093-.268.134-.154.07-.316.125-.467.2-.205.103-.39.246-.602.335-.026.01-.402 0-.467 0h-.669.936c.016 0 .198-.002.2 0 .016.015 0 .044 0 .066v.535c0 .045-.02.094 0 .134.01.02.045 0 .067 0h.134c.067 0 .137-.022.2 0 .021.007 0 .044 0 .066v2.139c0 .022.023.066 0 .066-.022 0-.01-.046 0-.066.03-.059.154-.122.2-.134.304-.076.06-.007.134.067.008.008.226 0 .268 0h.267c.022 0 .05-.016.067 0 .015.016 0 .044 0 .067v.334c0 .022-.016.05 0 .067.015.015.057-.02.066 0 .008.015 0 .223 0 .267" fill="none" stroke="#000" stroke-width=".053"/><path d="M73.354 37.34l37.596 17.257s-.336.678-.624.91c-.222.18-.795.329-.795.329L72.88 38.304s-.114-.334.015-.58c.13-.244.46-.384.46-.384zM41.385 47.67l10.807 7.521-24.096 3.024-9.26-7.56z" stroke="#000" stroke-width=".185"/><path d="M40.697 73.565s.17-1.42-.047-2.078c-.146-.44-.803-1.134-.803-1.134" fill="none" stroke="#000" stroke-width=".159"/><path d="M40.768 73.471s-.16.182-.19.297c-.102.4-.069.853.072 1.24.068.187.354.471.354.471z" fill="#1a1a1a"/><path d="M33.047 36.857c.036.032.457-.248.598-.163.263.16.632.348.822.32.681-.096 1.797-.613 2.976-1.81 1.183-1.2 2.02-3.562 4.32-4.803 2.212-1.194 5.074 1.703 7.693.828 5.264-1.759 10.162-6.64 11.134-5.796.996.865.537 2.805-.066 4.26-.656 1.584-1.483 2.698-.793 3.955.326.597 3.32-1.189 4.121-.774 1.717.886 1.61 3.64 1.61 3.64" fill="none" stroke="#000" stroke-width=".321"/><path d="M37.15 18.362l36.35-.935" fill="none" stroke="#000" stroke-width=".079"/></svg>