<svg xmlns="http://www.w3.org/2000/svg" width="631.078" height="669.97" viewBox="0 0 166.973 177.263"><path d="M67.61 147.57l-4.775-23.922-1.108-3.87s-.486-4.33-1.342-6.34c-.082-.194-.357-.532-.357-.532l-3.655 5.463s-3.245 3.443-5.43 4.431c-3.032 1.371-6.763 2.717-9.992 1.776-2.313-.674-4.96-4.802-4.96-4.802s-.385 14.938.56 22.336c.344 2.69.862 5.393 1.85 7.952 1.882 4.872 6.991 14.743 7.678 13.85.687-.891 21.53-16.342 21.53-16.342z" fill="#333" stroke="#000" stroke-width=".283"/><path d="M166.754-.108S101.479 1.69 96.659 7.125c-4.82 5.435-.567 6.047-.567 6.047l-3.78.945s-1.005.707.19 2.835c1.193 2.128 6.776 4.52 9.637 6.804 2.862 2.284 4.698 4.986 7.56 6.803 4.386 2.785 10.35 4.98 14.363 6.048 4.013 1.068 5.922 2.079 9.072 2.457 3.15.378 7.317-1.089 9.827-.19 2.51.9 2.417 2.408 5.292 3.403.951.329-2.388 1.96-1.719 3.236 1.353 2.579 3.797 5.08 3.797 5.08l-.263 17.874 2.483-2.41s1.835-1.834 3.01-2.29c1.358-.526 2.898-.478 4.352-.389 1.061.065 2.236.075 3.118.668 1.954 1.314 3.976 5.836 3.976 5.836" stroke="#000" stroke-width=".265"/><path d="M113.804 40.113s-.311-1.811 2.348-2.338c2.659-.527 8.801 2.81 12.076 5.216 3.275 2.406 6.726 5.913 7.38 8.453.653 2.541.096 2.4.096 2.4s-1.076-1.138-2.58-2.98c-1.505-1.843-4.796-3.43-7.915-5.355-3.12-1.925-11.405-5.396-11.405-5.396z" stroke="#000" stroke-width=".243"/><path d="M107.095 57.676s.604 2.213 0 3.341c-.603 1.128-2.173 2.468-3.608 2.406-1.434-.063-1.947-2.05-3.34-2.673-1.394-.622-3.48.387-4.812-.802-1.332-1.19-2.152-3.82-1.603-5.612.549-1.792 2.26-1.817 4.143-3.475 1.882-1.658 4.493-4.642 7.082-6.548 1.077-.793 2.424-.219 3.475-2.005" fill="none" stroke="#000" stroke-width=".265"/><path d="M117.363 47.07s2.535-.508 4.166 0c1.251.389 2.788 1.068 4.06 2.116a4.36 4.36 0 0 1 1.068 1.342c.585 1.197.937 3.885.937 3.885s-4.037-.16-6.065-1.024c-2.028-.863-3.085-1.918-3.739-3.1-.654-1.182-.427-3.22-.427-3.22z" fill="none" stroke="#000" stroke-width=".223"/><path d="M124.858 48.723c.758.389 1.53 1.201 1.604 2.004.074.803-.412 1.537-1.07 2.005-.657.468-1.692.66-2.538.4-.847-.258-1.853-.917-2.005-1.87-.152-.953.655-2.22 1.47-2.673.815-.453 1.781-.255 2.539.134z" stroke="#000" stroke-width=".265"/><path d="M108.754 63.594s2.932 2.147 3.59 4.158c.66 2.011-.566 7.182-.566 7.182" fill="none" stroke="#000" stroke-width=".1"/><path d="M150.52 58.076s-4.328 13.838-10.96 17.954c-6.634 4.116-21.51-.74-25.703 2.268-4.194 3.007-2.352 3.102-3.969 4.157-1.617 1.056-4.536.567-4.536.567s-3.42 5.268-6.047 5.481c-2.628.213-6.426-3.402-6.426-4.158 0-.756 3.969-3.78 3.969-3.78l-4.82-2.74s-.554.652-1.387 2.895a36.559 36.559 0 0 0-.606 1.779c-.109.347-.975-.411-1.386.383-1.802 6.687 3.764 11.395 8.86 14.22 3.608 2.01 6.817 1.554 11.123 2.005 4.306.452 7.888 1.43 11.692-.133 8.292-2.015 15.15-7.672 20.06-13.245 6.87-7.678 12.404-19.526 12.404-19.526" stroke="#000" stroke-width=".265"/><path d="M96.067 62.192s4.682 1.94 6.9 3.851c2.22 1.912 5.681 5.244 6.346 8.628.664 3.383-2.23 9.377-2.23 9.377s-.673-6.4-.673-7.337c0-.372.125-1.823-.854-3.104-1.49-1.95-4.412-4-5.332-5.126-1.523-1.864-2.044-2.354-4.52-4.194-2.477-1.84.363-2.095.363-2.095z" stroke="#000" stroke-width=".251"/><path d="M101.906 78.713s-2.601.927-4.954.672c-1.681-.183-3.063-1.905-3.45-2.408-.93-1.209-.318-4.537-.318-4.537s1.867-2.831 2.064-4.325c.197-1.493-1.25-3.164-1.11-4.558.139-1.395.762-1.748 1.009-3.402.247-1.655-2.104-4.05-1.512-5.859.592-1.81 2.646-1.64 4.158-3.402 1.511-1.762 3.009-5.757 4.346-7.37 1.338-1.613 2.175-.774 3.024-2.646.85-1.872.092-6.204 0-8.315-.091-2.112.906-6.025.378-7.37" fill="none" stroke="#000" stroke-width=".253"/><path d="M105.163 74.896s-2.844.62-4.535.378c-1.692-.243-1.93-.623-3.48-1.49-1.253-.699-1.043-1.281-1.145-2.258-.226-2.148-.856-4.757-.856-4.757s.694.928 1.925 1.612c1.736.966 2.882 2.151 3.556 2.924 1.572 1.804 4.535 3.59 4.535 3.59z" fill="none" stroke="#000" stroke-width=".265"/><path d="M92.953 75.265l-1.783 2.98s-3.108 5.257-2.447 4.774" fill="none" stroke="#000" stroke-width=".273"/><path d="M158.037 83.555s-.435 1.336-1.342 3.085c-.538 1.037-.67 4.32-1.21 5.388-.693 1.367-1.76.458-2.018 1.062-.802 1.87-4.804.046-6.963.956-1.66.7-2.582 2.672-4.263 3.32-4.501 1.734-14.432 1.069-14.432 1.069M94.344 65.012l-1.418 9.355" fill="none" stroke="#000" stroke-width=".265"/><path d="M97.624 72.86c.22.278-1.549-1.142-1.544-.636.005.52 1.996 2.156 2.282 2.31 1.044.564 3.013.797 3.013.797" stroke="#000" stroke-width=".292"/><path d="M122.168 49.486s.968-.946 1.582-.944c.792.002 1.558.594 2.032 1.228.205.274.26.992.26.992s-1.103-1.005-1.796-1.205c-.514-.148-1.073.105-1.606.048a3.347 3.347 0 0 1-.472-.119z" fill="#fff" stroke="#000" stroke-width=".265"/><path d="M104.407 41.86l3.591-1.511v-5.292l-2.457-5.48s-.875 1.452-.945 2.267c-.121 1.416.945 4.158.945 4.158" stroke="#000" stroke-width=".265"/><path d="M97.226 97.763l-5.103 1.512-4.914 18.332 40.255-18.899h-2.835z" fill="#333" stroke="#000" stroke-width=".265"/><path d="M166.785 111.532l.428 65.793-153.61-.265 98.125-54.491c8.272-6.732 18.388-10.774 29.505-11.46z" fill="#333" stroke="#000" stroke-width=".394"/><path d="M37.845 122.066s1.179-7.155.965-11.635c-.213-4.48-2.698-14.996-2.698-14.996m22.699 20.087s-1.76-3.539-2.046-5.718c-.287-2.18.7-7.96.7-7.96-3.635.47-5.863.562-7.628.152" fill="none" stroke="#000" stroke-width=".265"/><path d="M46.308 102.203c.071.362-4.778.97-6.663-.452-1.885-1.422-3.372-6.007-3.372-6.007.014.004-1.63-2.749-2-5.959-.418-3.618.6-7.847 1.742-11.836.316-1.103.83-2.575 1.932-3.63.75-.72 2.018-1.061 2.729-1.681 1.458-1.27 1.465-1.701 2.385-2.32a6.802 6.802 0 0 1 2.13-.93c1.09-.273 3.36-.267 3.36-.267l2.648-4.073c1.332-1.977 4.66-2.056 6.594-.949.494.283 1.53 4.676 2.189 8.427.214 1.22.339 2.36.502 3.298.257 1.48.112 2.375.217 2.121-.075 2.245.154 2.61-.379 3.72-1.176 1.318-2.495 1.827-3.504.727-1.053-1.147-1.69-3.483-2.526-5.515-.944-2.298-1.9-4.605-2.261-5.586m0 0c-.448-1.108-.573-1.507-.78-2.457" fill="none" stroke="#000" stroke-width=".265"/><path d="M120.66 117.985c7.261-3.938 16.47-5.257 22.868-6.236 6.397-.98 15.119-.567 15.119-.567l.189-17.576h-6.237l-8.882.945s-11.508 2.208-17.01 4.157c-16.812 5.96-32.527 14.691-48.38 22.868-10.077 5.197-29.671 20.64-29.671 20.64s-21.05 17.523-32.883 23.405c-5.745 2.856-15.426 11.51-15.426 11.51h16.099c3.656-4.6 4.166-3.519 23.369-14.818 19.202-11.3 73.584-40.39 80.845-44.328z" fill="#666" stroke="#000" stroke-width=".265"/><path d="M105.224 107.517l4.544 16.193-27.662 15.144-6.64-15.762zm37.017-12.753l2.807 17.025 20.446.657s1.837-10.32.319-15.13c-.576-1.824-1.645-3.851-3.393-4.627-6.18-2.744-20.179 2.075-20.179 2.075zm-91.128 45.711l-16.89 13.03-1.82 13.05 21.356-12zm-37.936 26.533L9.141 177H.588l5.235-4.405z" fill="#1a1a1a"/><path d="M118.524 162.312c1.604-2.138 3.598-9.175 6.415-7.483 3.772 2.265-6.39 8.187-4.811 12.294.429 1.116 2.95.436 3.207 1.604.734 3.343-6.415 8.018-6.415 8.018m-59.301-75.012s4.263-3.795 6.536-5.517c1.002-.76 2.361-1.204 3.122-2.117.887-1.741 1.49-5.285.996-7.892-.306-1.616-1.349-2.557-2.053-3.437-.46-.413-1.369.432-2.055.775-.753.376-1.85.918-2.372.4-1.148-1.188-.747-.951-1.101-2.982-.045-.961.24-3.495.24-3.495-.247-2.515-2.558-12.367-2.432-12.555.396-.592 2.438-.962 3.12-.754 1.843.562 3.664 2.214 4.08 4.096 1.131 5.108.548 9.77.573 9.422l-1.86 5.245-.222.969m-15.31-14.425s1.928 1.66 2.675 2.675c.767 1.042 1.803 3.438 1.803 3.438l1.579 6.585s.553 2.032.498 3.08c-.024.473.467 2.054.434 3.51.506 2.886-2.357 3.57-3.357 2.487-.436-.472-1.282-1.353-1.466-2.599-.34-2.297-1.63-4.674-2.124-5.72-.408-.864-.817-2.05-1.345-2.955-.502-.86-1.133-1.464-1.133-1.464l-3.004-4.042-1.413-1.059m1.388 1.17l2.813 3.755 1.483 1.804.794 2.17s.63 1.487 1.223 3.194c.167 1.764.803 4.063.576 5.589-.499 1.815-2.69 1.484-3.342.974-.833-1.17-1.446-2.359-1.997-3.8-.44-1.15-1.01-2.12-1.442-3.177-.498-1.214-.93-1.452-2.627-2.694-.586-.363-.76-.766-1.135-.691m57.348-8.09s-.617-.275-.932-.22c-.236.041-.601.394-.601.394m22.4-27.336s2.672-.694 3.968-.429c1.12.229 2.45.73 3.386 1.384 1.031.722 1.818 1.934 2.379 3.06.481.97.472 3.214.472 3.214m-11.452-5.387s-1.304 2.783-.946 4.158c.214.82 1.701 1.89 1.701 1.89" fill="none" stroke="#000" stroke-width=".265"/><path d="M64.091 91.052s-2.491.562-3.538.02c-.69-.36-1.114-1.17-1.333-1.917-.22-.746-.263-1.635.083-2.332.336-.678 1.758-1.438 1.758-1.438s2.218-.65 2.995-1.439c.127-.129-.125.006.227-.492m-.45 7.631l-1.15.517m91.282-26.742s1.064-.973 2.531-1.375c1.21-.331 2.75-.112 3.714-.066 1.265.06 2.59.441 3.603 1.2 1.013.76 1.736 1.931 2.162 3.124.266.744.813 1.86.865 2.899-.341 2.44-.276 2.493-.72 3.652-1.081 2.82-1.82 5.216-4.638 7.783-.786.716-1.94.87-2.912 1.299-.232.102-.453.236-.697.303-1.673.462-4.342.314-5.164.67-5.459 3.32-7.407-.91-6.757-3.394" fill="none" stroke="#000" stroke-width=".265"/><path d="M153.751 68.478s2.98-1.783 4.645-2.15c.851-.187 1.824-.368 2.614 0 1.433.67 2.654 2.109 3.046 3.642.661 2.589-.112 5.618-1.564 7.861-1.201 1.856-3.24 3.393-5.405 3.844-1.446.301-4.338-.914-4.338-.914" fill="none" stroke="#000" stroke-width=".29"/><path d="M155.454 71.001s2.808 1.545 3.502 2.834c.466.863.66 2.014.227 2.878-.239.478-.832.775-1.376.912-.905.23-1.9-.404-2.82-.225-.97.189-1.679 1-2.606 1.324-.565.198-1.772.37-1.772.37s.295-2.121 1.075-2.775c.593-.497 1.753-.015 2.33-.53.72-.641.85-2.69.85-2.69s1.943.806 2.616 1.537c.565.616 1.037 2.229 1.037 2.229" fill="none" stroke="#000" stroke-width=".232"/></svg>