<svg xmlns="http://www.w3.org/2000/svg" width="427.693" height="355.621" viewBox="0 0 113.16 94.091"><g stroke="#000" stroke-width=".096"><path d="M22.337 1.508L9.104 9.876h-.389v-1.07L22.726.05l44.857 2.43 41.061 2.822s.91 2.028 1.07 3.114c.252 1.702.22 3.487-.194 5.157-.216.873-1.168 2.432-1.168 2.432l-1.751.633-75.604-4.525-8.125 1.509-7.832 2.092-4.282 1.167 11.871-5.74s.412-2.913.382-4.378c-.036-1.766-.674-5.256-.674-5.256z" fill="#999"/><path d="M10.758 16.882l-4.865 1.265-.194.876L29.44 12.6s.404.887.487 1.362c.431 2.493 0 7.59 0 7.59L5.893 25.93V27l5.075-.115 18.959-4.36 31.526 1.167 48.359 1.752s.884-1.025 1.07-1.654c.423-1.431.196-2.997 0-4.476-.114-.866-.681-2.53-.681-2.53L29.343 11.92z" fill="#e6e6e6"/><path d="M29.927 22.526L9.688 27.293v.973L29.1 23.84s.494 3.205.509 4.82c.015 1.757-.46 5.251-.46 5.251L9.59 36.342l.292.682 19.265-.938 32.207-.133 48.068.39s.881-3.018.973-4.574c.124-2.113-.584-6.324-.584-6.324z"/><path d="M34.305 35.661L9.883 37.024l1.557 1.362 23.45-1.216.372 6.321-.373 7.69-23.936-1.508v.973l24.033 2.238 27.537-.098 43.008-1.167s1.038-3.858 1.167-5.838c.124-1.914-.39-5.741-.39-5.741l-1.07-3.99z" fill="gray"/><path d="M34.305 52.981l-23.45-2.432-4.962.291v1.168l9.05 1.751.289 4.622-.144 4.136-8.514-4.087-.486.876.973.875 7.881 3.503 47.776-1.07 46.51-1.07.681-5.352-.681-3.99-3.697-.68z" fill="#f2f2f2"/><path d="M6.283 59.695l-4.574.292-.194.875 20.968 4.671s.378 3.01.418 4.525c.05 1.898-.223 5.692-.223 5.692L2.585 69.133h-.973l.097.973 20.434 7.54 41.499-2.626 46.364-2.92.973-4.134s-.037-3.213-.389-4.768c-.16-.711-.778-2.044-.778-2.044l-95.064 2.628z" fill="#1a1a1a"/><path d="M1.223 69.62l-1.168.973.292.973 16.347 7.297s.362 4.37.412 6.56c.05 2.257-.12 6.77-.12 6.77L1.417 81.686l-1.264-.097v1.848l16.54 10.606 48.846-3.308 46.413-3.795s.81-2.827.973-4.281c.225-1.998.273-4.04 0-6.033-.196-1.434-1.167-4.184-1.167-4.184l-1.265.584-1.752-.876-86.696 5.352z" fill="#666"/><path d="M9.615 9.633l.146 7.37M6.793 18.78l.609 3.478-.341 3.357m3.551 2.555l.463 2.7-.244 5.18m1.022 2.385l.608 4.986-.34 4.111-.049 2.068m-5.084 2.7l.17 6.227m-4.378 2.7l.34 2.36v3.454l-.219 2.117M1.32 72.15s.122 2.602.292 2.748c.17.146.049 6.982.049 6.982" fill="none"/></g><g transform="translate(-.139 -215.338)"><path d="M61.689 236.647l2.919 65.922c.043 1.297 1.036 2.762 1.946 3.892.427.53.976.987 1.589 1.283.648.312 1.39.409 2.108.469 9.969.833 19.98.116 29.97-1.557 1.371-.537 2.708-1.167 3.697-2.725.414-.978.98-1.837.778-3.308l-3.697-61.3s-.31-2.288-.876-3.26c-.71-1.218-1.739-2.369-3.016-2.967-2.637-1.235-5.785-1.295-8.757-1.46-4.403-.244-8.874-.138-13.318-.136-2.31 0-4.617.141-6.921.234-1.687.067-2.556.234-3.503.778-.563.338-1.252.642-1.787 1.335-.534.693-.792.8-.979 1.814-.187 1.014-.153.986-.153.986z" fill="#999" stroke="#000" stroke-width=".096"/><path d="M75.311 234.653l-10.07.632c-1.366.086-1.942 1.735-1.898 2.433l2.627 63.878c.065 1.579 1.711 2.197 3.114 2.87 1.273.611 8.296.31 12.446.261 2.307-.027 4.615-.135 6.917-.31 4.586-.345 12.792-1.152 13.72-1.459.783-.259 2.033-.913 1.945-2.19l-4.28-62.223c-.088-1.27-1.298-2.41-2.53-2.53l-12.018-1.168z" stroke="#000" stroke-width=".096"/><path d="M67.721 296.342l34.056-.973-3.113-55.851-33.667-.584z" fill="#333" stroke="#000" stroke-width=".096"/><path d="M73.308 301.242v-1.328l2.992-.052.105 1.258m-2.491-.688h1.926m-1.912.688h1.857m18.783-.688s1.801.195 2.27 0c.47-.194.536-.274.551-.55.016-.276-.128-.486-.55-.688-.422-.203-1.927 0-1.927 0m-7.981.894l-1.445-.825-1.359.918.465-.23v.756l1.935.034-.025-.85" fill="none" stroke="#fff" stroke-width=".096"/><circle cx="73.186" cy="237.304" r=".511" fill="none" stroke="#fff" stroke-width=".058" stroke-linecap="round" stroke-linejoin="bevel"/><ellipse cx="69.975" cy="237.11" rx="1.192" ry="1.095" fill="none" stroke="#fff" stroke-width=".058" stroke-linecap="round" stroke-linejoin="bevel"/><path d="M75.497 234.555l.097-.584 5.644-.194 6.47.486v.682l-6.276-.292z" fill="#4d4d4d" stroke="#000" stroke-width=".096"/><path d="M95.138 299.648l-.353-.181-.349-.192.334-.215.34-.206.02.397z" fill="#fff" stroke="#fff" stroke-width=".058" stroke-linecap="round" stroke-linejoin="bevel"/></g></svg>